<svg width="1281" height="367" viewBox="0 0 1281 367" fill="none" xmlns="http://www.w3.org/2000/svg">
<mask id="mask0_2227_320" style="mask-type:alpha" maskUnits="userSpaceOnUse" x="0" y="0" width="1281" height="367">
<rect x="0.3125" y="0.625" width="1280" height="366.082" fill="#898989"/>
</mask>
<g mask="url(#mask0_2227_320)">
<rect x="-79.6875" y="-67.168" width="1440" height="433.875" fill="white"/>
<g opacity="0.4">
<rect x="0.3125" y="34.6094" width="4.50749" height="4.54934" rx="2.25374" fill="#878787"/>
<rect x="98.3516" y="34.6094" width="4.50749" height="4.54934" rx="2.25374" fill="#878787"/>
<rect x="196.391" y="34.6094" width="4.50749" height="4.54934" rx="2.25374" fill="#878787"/>
<rect x="294.43" y="34.6094" width="4.50749" height="4.54934" rx="2.25374" fill="#878787"/>
<rect x="392.461" y="34.6094" width="4.50749" height="4.54934" rx="2.25374" fill="#878787"/>
<rect x="490.5" y="34.6094" width="4.50749" height="4.54934" rx="2.25374" fill="#878787"/>
<rect x="588.539" y="34.6094" width="4.50749" height="4.54934" rx="2.25374" fill="#878787"/>
<rect x="686.578" y="34.6094" width="4.50749" height="4.54934" rx="2.25374" fill="#878787"/>
<rect x="784.617" y="34.6094" width="4.50749" height="4.54934" rx="2.25374" fill="#878787"/>
<rect x="882.656" y="34.6094" width="4.50749" height="4.54934" rx="2.25374" fill="#878787"/>
<rect x="980.688" y="34.6094" width="4.50749" height="4.54934" rx="2.25374" fill="#878787"/>
<rect x="1078.73" y="34.6094" width="4.50749" height="4.54934" rx="2.25374" fill="#878787"/>
<rect x="1176.77" y="34.6094" width="4.50749" height="4.54934" rx="2.25374" fill="#878787"/>
<rect x="1274.8" y="34.6094" width="4.50749" height="4.54934" rx="2.25374" fill="#878787"/>
<rect x="0.3125" y="133.57" width="4.50749" height="4.54934" rx="2.25374" fill="#878787"/>
<rect x="98.3516" y="133.57" width="4.50749" height="4.54934" rx="2.25374" fill="#878787"/>
<rect x="196.391" y="133.57" width="4.50749" height="4.54934" rx="2.25374" fill="#878787"/>
<rect x="294.43" y="133.57" width="4.50749" height="4.54934" rx="2.25374" fill="#878787"/>
<rect x="392.461" y="133.57" width="4.50749" height="4.54934" rx="2.25374" fill="#878787"/>
<rect x="490.5" y="133.57" width="4.50749" height="4.54934" rx="2.25374" fill="#878787"/>
<rect x="588.539" y="133.57" width="4.50749" height="4.54934" rx="2.25374" fill="#878787"/>
<rect x="686.578" y="133.57" width="4.50749" height="4.54934" rx="2.25374" fill="#878787"/>
<rect x="784.617" y="133.57" width="4.50749" height="4.54934" rx="2.25374" fill="#878787"/>
<rect x="882.656" y="133.57" width="4.50749" height="4.54934" rx="2.25374" fill="#878787"/>
<rect x="980.688" y="133.57" width="4.50749" height="4.54934" rx="2.25374" fill="#878787"/>
<rect x="1078.73" y="133.57" width="4.50749" height="4.54934" rx="2.25374" fill="#878787"/>
<rect x="1176.77" y="133.57" width="4.50749" height="4.54934" rx="2.25374" fill="#878787"/>
<rect x="1274.8" y="133.57" width="4.50749" height="4.54934" rx="2.25374" fill="#878787"/>
<rect x="0.3125" y="232.535" width="4.50749" height="4.54934" rx="2.25374" fill="#878787"/>
<rect x="98.3516" y="232.535" width="4.50749" height="4.54934" rx="2.25374" fill="#878787"/>
<rect x="196.391" y="232.535" width="4.50749" height="4.54934" rx="2.25374" fill="#878787"/>
<rect x="294.43" y="232.535" width="4.50749" height="4.54934" rx="2.25374" fill="#878787"/>
<rect x="392.461" y="232.535" width="4.50749" height="4.54934" rx="2.25374" fill="#878787"/>
<rect x="490.5" y="232.535" width="4.50749" height="4.54934" rx="2.25374" fill="#878787"/>
<rect x="588.539" y="232.535" width="4.50749" height="4.54934" rx="2.25374" fill="#878787"/>
<rect x="686.578" y="232.535" width="4.50749" height="4.54934" rx="2.25374" fill="#878787"/>
<rect x="784.617" y="232.535" width="4.50749" height="4.54934" rx="2.25374" fill="#878787"/>
<rect x="882.656" y="232.535" width="4.50749" height="4.54934" rx="2.25374" fill="#878787"/>
<rect x="980.688" y="232.535" width="4.50749" height="4.54934" rx="2.25374" fill="#878787"/>
<rect x="1078.73" y="232.535" width="4.50749" height="4.54934" rx="2.25374" fill="#878787"/>
<rect x="1176.77" y="232.535" width="4.50749" height="4.54934" rx="2.25374" fill="#878787"/>
<rect x="1274.8" y="232.535" width="4.50749" height="4.54934" rx="2.25374" fill="#878787"/>
<rect x="0.3125" y="331.492" width="4.50749" height="4.54934" rx="2.25374" fill="#878787"/>
<rect x="98.3516" y="331.492" width="4.50749" height="4.54934" rx="2.25374" fill="#878787"/>
<rect x="196.391" y="331.492" width="4.50749" height="4.54934" rx="2.25374" fill="#878787"/>
<rect x="294.43" y="331.492" width="4.50749" height="4.54934" rx="2.25374" fill="#878787"/>
<rect x="392.461" y="331.492" width="4.50749" height="4.54934" rx="2.25374" fill="#878787"/>
<rect x="490.5" y="331.492" width="4.50749" height="4.54934" rx="2.25374" fill="#878787"/>
<rect x="588.539" y="331.492" width="4.50749" height="4.54934" rx="2.25374" fill="#878787"/>
<rect x="686.578" y="331.492" width="4.50749" height="4.54934" rx="2.25374" fill="#878787"/>
<rect x="784.617" y="331.492" width="4.50749" height="4.54934" rx="2.25374" fill="#878787"/>
<rect x="882.656" y="331.492" width="4.50749" height="4.54934" rx="2.25374" fill="#878787"/>
<rect x="980.688" y="331.492" width="4.50749" height="4.54934" rx="2.25374" fill="#878787"/>
<rect x="1078.73" y="331.492" width="4.50749" height="4.54934" rx="2.25374" fill="#878787"/>
<rect x="1176.77" y="331.492" width="4.50749" height="4.54934" rx="2.25374" fill="#878787"/>
<rect x="1274.8" y="331.492" width="4.50749" height="4.54934" rx="2.25374" fill="#878787"/>
</g>
<path d="M476.308 149.664V104.964H505.768V111.264H483.388V124.104H504.568V130.404H483.388V143.364H505.768V149.664H476.308ZM507.243 149.664L518.583 133.404L507.243 117.204H515.223L524.523 130.764H520.683L529.983 117.204H537.963L526.563 133.404L537.903 149.664H529.923L520.743 136.044H524.463L515.223 149.664H507.243ZM541.392 161.664V117.204H547.872V123.924L547.092 122.364C548.292 120.524 549.892 119.084 551.892 118.044C553.892 117.004 556.172 116.484 558.732 116.484C561.812 116.484 564.572 117.224 567.012 118.704C569.492 120.184 571.432 122.204 572.832 124.764C574.272 127.324 574.992 130.204 574.992 133.404C574.992 136.604 574.272 139.484 572.832 142.044C571.432 144.604 569.512 146.644 567.072 148.164C564.632 149.644 561.852 150.384 558.732 150.384C556.212 150.384 553.912 149.864 551.832 148.824C549.792 147.784 548.212 146.284 547.092 144.324L548.172 143.064V161.664H541.392ZM558.072 144.084C559.992 144.084 561.692 143.624 563.172 142.704C564.652 141.784 565.812 140.524 566.652 138.924C567.532 137.284 567.972 135.444 567.972 133.404C567.972 131.364 567.532 129.544 566.652 127.944C565.812 126.344 564.652 125.084 563.172 124.164C561.692 123.244 559.992 122.784 558.072 122.784C556.192 122.784 554.492 123.244 552.972 124.164C551.492 125.084 550.312 126.344 549.432 127.944C548.592 129.544 548.172 131.364 548.172 133.404C548.172 135.444 548.592 137.284 549.432 138.924C550.312 140.524 551.492 141.784 552.972 142.704C554.492 143.624 556.192 144.084 558.072 144.084ZM580.388 149.664V104.244H587.168V149.664H580.388ZM609.555 150.384C606.435 150.384 603.575 149.644 600.975 148.164C598.415 146.684 596.375 144.664 594.855 142.104C593.335 139.544 592.575 136.644 592.575 133.404C592.575 130.124 593.335 127.224 594.855 124.704C596.375 122.144 598.415 120.144 600.975 118.704C603.535 117.224 606.395 116.484 609.555 116.484C612.755 116.484 615.615 117.224 618.135 118.704C620.695 120.144 622.715 122.144 624.195 124.704C625.715 127.224 626.475 130.124 626.475 133.404C626.475 136.684 625.715 139.604 624.195 142.164C622.675 144.724 620.635 146.744 618.075 148.224C615.515 149.664 612.675 150.384 609.555 150.384ZM609.555 144.084C611.475 144.084 613.175 143.624 614.655 142.704C616.135 141.784 617.295 140.524 618.135 138.924C619.015 137.284 619.455 135.444 619.455 133.404C619.455 131.364 619.015 129.544 618.135 127.944C617.295 126.344 616.135 125.084 614.655 124.164C613.175 123.244 611.475 122.784 609.555 122.784C607.675 122.784 605.975 123.244 604.455 124.164C602.975 125.084 601.795 126.344 600.915 127.944C600.075 129.544 599.655 131.364 599.655 133.404C599.655 135.444 600.075 137.284 600.915 138.924C601.795 140.524 602.975 141.784 604.455 142.704C605.975 143.624 607.675 144.084 609.555 144.084ZM631.894 149.664V117.204H638.374V123.744L637.774 122.784C638.494 120.664 639.654 119.144 641.254 118.224C642.854 117.264 644.774 116.784 647.014 116.784H648.994V122.964H646.174C643.934 122.964 642.114 123.664 640.714 125.064C639.354 126.424 638.674 128.384 638.674 130.944V149.664H631.894ZM667.672 150.384C664.432 150.384 661.552 149.644 659.032 148.164C656.552 146.644 654.612 144.604 653.212 142.044C651.812 139.444 651.112 136.544 651.112 133.344C651.112 130.064 651.812 127.164 653.212 124.644C654.652 122.124 656.572 120.144 658.972 118.704C661.372 117.224 664.092 116.484 667.132 116.484C669.572 116.484 671.752 116.904 673.672 117.744C675.592 118.584 677.212 119.744 678.532 121.224C679.852 122.664 680.852 124.324 681.532 126.204C682.252 128.084 682.612 130.084 682.612 132.204C682.612 132.724 682.592 133.264 682.552 133.824C682.512 134.384 682.432 134.904 682.312 135.384H656.452V129.984H678.472L675.232 132.444C675.632 130.484 675.492 128.744 674.812 127.224C674.172 125.664 673.172 124.444 671.812 123.564C670.492 122.644 668.932 122.184 667.132 122.184C665.332 122.184 663.732 122.644 662.332 123.564C660.932 124.444 659.852 125.724 659.092 127.404C658.332 129.044 658.032 131.044 658.192 133.404C657.992 135.604 658.292 137.524 659.092 139.164C659.932 140.804 661.092 142.084 662.572 143.004C664.092 143.924 665.812 144.384 667.732 144.384C669.692 144.384 671.352 143.944 672.712 143.064C674.112 142.184 675.212 141.044 676.012 139.644L681.532 142.344C680.892 143.864 679.892 145.244 678.532 146.484C677.212 147.684 675.612 148.644 673.732 149.364C671.892 150.044 669.872 150.384 667.672 150.384ZM700.977 149.664V123.324H694.977V117.204H700.977V115.524C700.977 113.084 701.477 111.044 702.477 109.404C703.477 107.724 704.857 106.444 706.617 105.564C708.417 104.684 710.477 104.244 712.797 104.244C713.237 104.244 713.737 104.284 714.297 104.364C714.857 104.404 715.317 104.464 715.677 104.544V110.424C715.357 110.344 714.997 110.304 714.597 110.304C714.197 110.264 713.877 110.244 713.637 110.244C711.837 110.244 710.397 110.664 709.317 111.504C708.237 112.304 707.697 113.644 707.697 115.524V117.204H715.137V123.324H707.697V149.664H700.977ZM719.965 149.664V117.204H726.445V123.744L725.845 122.784C726.565 120.664 727.725 119.144 729.325 118.224C730.925 117.264 732.845 116.784 735.085 116.784H737.065V122.964H734.245C732.005 122.964 730.185 123.664 728.785 125.064C727.425 126.424 726.745 128.384 726.745 130.944V149.664H719.965ZM755.743 150.384C752.503 150.384 749.623 149.644 747.103 148.164C744.623 146.644 742.683 144.604 741.283 142.044C739.883 139.444 739.183 136.544 739.183 133.344C739.183 130.064 739.883 127.164 741.283 124.644C742.723 122.124 744.643 120.144 747.043 118.704C749.443 117.224 752.163 116.484 755.203 116.484C757.643 116.484 759.823 116.904 761.743 117.744C763.663 118.584 765.283 119.744 766.603 121.224C767.923 122.664 768.923 124.324 769.603 126.204C770.323 128.084 770.683 130.084 770.683 132.204C770.683 132.724 770.663 133.264 770.623 133.824C770.583 134.384 770.503 134.904 770.383 135.384H744.523V129.984H766.543L763.303 132.444C763.703 130.484 763.563 128.744 762.883 127.224C762.243 125.664 761.243 124.444 759.883 123.564C758.563 122.644 757.003 122.184 755.203 122.184C753.403 122.184 751.803 122.644 750.403 123.564C749.003 124.444 747.923 125.724 747.163 127.404C746.403 129.044 746.103 131.044 746.263 133.404C746.063 135.604 746.363 137.524 747.163 139.164C748.003 140.804 749.163 142.084 750.643 143.004C752.163 143.924 753.883 144.384 755.803 144.384C757.763 144.384 759.423 143.944 760.783 143.064C762.183 142.184 763.283 141.044 764.083 139.644L769.603 142.344C768.963 143.864 767.963 145.244 766.603 146.484C765.283 147.684 763.683 148.644 761.803 149.364C759.963 150.044 757.943 150.384 755.743 150.384ZM791.34 150.384C788.1 150.384 785.22 149.644 782.7 148.164C780.22 146.644 778.28 144.604 776.88 142.044C775.48 139.444 774.78 136.544 774.78 133.344C774.78 130.064 775.48 127.164 776.88 124.644C778.32 122.124 780.24 120.144 782.64 118.704C785.04 117.224 787.76 116.484 790.8 116.484C793.24 116.484 795.42 116.904 797.34 117.744C799.26 118.584 800.88 119.744 802.2 121.224C803.52 122.664 804.52 124.324 805.2 126.204C805.92 128.084 806.28 130.084 806.28 132.204C806.28 132.724 806.26 133.264 806.22 133.824C806.18 134.384 806.1 134.904 805.98 135.384H780.12V129.984H802.14L798.9 132.444C799.3 130.484 799.16 128.744 798.48 127.224C797.84 125.664 796.84 124.444 795.48 123.564C794.16 122.644 792.6 122.184 790.8 122.184C789 122.184 787.4 122.644 786 123.564C784.6 124.444 783.52 125.724 782.76 127.404C782 129.044 781.7 131.044 781.86 133.404C781.66 135.604 781.96 137.524 782.76 139.164C783.6 140.804 784.76 142.084 786.24 143.004C787.76 143.924 789.48 144.384 791.4 144.384C793.36 144.384 795.02 143.944 796.38 143.064C797.78 142.184 798.88 141.044 799.68 139.644L805.2 142.344C804.56 143.864 803.56 145.244 802.2 146.484C800.88 147.684 799.28 148.644 797.4 149.364C795.56 150.044 793.54 150.384 791.34 150.384Z" fill="black"/>
<path d="M374.824 220.384C371.664 220.384 368.724 219.804 366.004 218.644C363.324 217.484 360.984 215.884 358.984 213.844C357.024 211.764 355.484 209.324 354.364 206.524C353.244 203.724 352.684 200.644 352.684 197.284C352.684 193.964 353.224 190.904 354.304 188.104C355.424 185.264 356.984 182.824 358.984 180.784C360.984 178.704 363.324 177.104 366.004 175.984C368.684 174.824 371.624 174.244 374.824 174.244C377.984 174.244 380.804 174.784 383.284 175.864C385.804 176.944 387.924 178.364 389.644 180.124C391.364 181.844 392.604 183.724 393.364 185.764L387.004 188.764C386.044 186.364 384.504 184.424 382.384 182.944C380.304 181.424 377.784 180.664 374.824 180.664C371.864 180.664 369.244 181.364 366.964 182.764C364.684 184.164 362.904 186.104 361.624 188.584C360.384 191.064 359.764 193.964 359.764 197.284C359.764 200.604 360.384 203.524 361.624 206.044C362.904 208.524 364.684 210.464 366.964 211.864C369.244 213.224 371.864 213.904 374.824 213.904C377.784 213.904 380.304 213.164 382.384 211.684C384.504 210.204 386.044 208.264 387.004 205.864L393.364 208.864C392.604 210.864 391.364 212.744 389.644 214.504C387.924 216.264 385.804 217.684 383.284 218.764C380.804 219.844 377.984 220.384 374.824 220.384ZM413.859 220.384C410.739 220.384 407.879 219.644 405.279 218.164C402.719 216.684 400.679 214.664 399.159 212.104C397.639 209.544 396.879 206.644 396.879 203.404C396.879 200.124 397.639 197.224 399.159 194.704C400.679 192.144 402.719 190.144 405.279 188.704C407.839 187.224 410.699 186.484 413.859 186.484C417.059 186.484 419.919 187.224 422.439 188.704C424.999 190.144 427.019 192.144 428.499 194.704C430.019 197.224 430.779 200.124 430.779 203.404C430.779 206.684 430.019 209.604 428.499 212.164C426.979 214.724 424.939 216.744 422.379 218.224C419.819 219.664 416.979 220.384 413.859 220.384ZM413.859 214.084C415.779 214.084 417.479 213.624 418.959 212.704C420.439 211.784 421.599 210.524 422.439 208.924C423.319 207.284 423.759 205.444 423.759 203.404C423.759 201.364 423.319 199.544 422.439 197.944C421.599 196.344 420.439 195.084 418.959 194.164C417.479 193.244 415.779 192.784 413.859 192.784C411.979 192.784 410.279 193.244 408.759 194.164C407.279 195.084 406.099 196.344 405.219 197.944C404.379 199.544 403.959 201.364 403.959 203.404C403.959 205.444 404.379 207.284 405.219 208.924C406.099 210.524 407.279 211.784 408.759 212.704C410.279 213.624 411.979 214.084 413.859 214.084ZM447.778 220.384C445.338 220.384 443.198 219.844 441.358 218.764C439.518 217.644 438.078 216.104 437.038 214.144C436.038 212.144 435.538 209.844 435.538 207.244V187.204H442.318V206.644C442.318 208.124 442.618 209.424 443.218 210.544C443.818 211.664 444.658 212.544 445.738 213.184C446.818 213.784 448.058 214.084 449.458 214.084C450.898 214.084 452.158 213.764 453.238 213.124C454.318 212.484 455.158 211.584 455.758 210.424C456.398 209.264 456.718 207.904 456.718 206.344V187.204H463.438V219.664H457.018V213.304L457.738 214.144C456.978 216.144 455.718 217.684 453.958 218.764C452.198 219.844 450.138 220.384 447.778 220.384ZM470.154 219.664V187.204H476.634V193.564L475.854 192.724C476.654 190.684 477.934 189.144 479.694 188.104C481.454 187.024 483.494 186.484 485.814 186.484C488.214 186.484 490.334 187.004 492.174 188.044C494.014 189.084 495.454 190.524 496.494 192.364C497.534 194.204 498.054 196.324 498.054 198.724V219.664H491.334V200.524C491.334 198.884 491.034 197.504 490.434 196.384C489.834 195.224 488.974 194.344 487.854 193.744C486.774 193.104 485.534 192.784 484.134 192.784C482.734 192.784 481.474 193.104 480.354 193.744C479.274 194.344 478.434 195.224 477.834 196.384C477.234 197.544 476.934 198.924 476.934 200.524V219.664H470.154ZM518.15 220.024C514.75 220.024 512.11 219.064 510.23 217.144C508.35 215.224 507.41 212.524 507.41 209.044V193.324H501.71V187.204H502.61C504.13 187.204 505.31 186.764 506.15 185.884C506.99 185.004 507.41 183.804 507.41 182.284V179.764H514.19V187.204H521.57V193.324H514.19V208.744C514.19 209.864 514.37 210.824 514.73 211.624C515.09 212.384 515.67 212.984 516.47 213.424C517.27 213.824 518.31 214.024 519.59 214.024C519.91 214.024 520.27 214.004 520.67 213.964C521.07 213.924 521.45 213.884 521.81 213.844V219.664C521.25 219.744 520.63 219.824 519.95 219.904C519.27 219.984 518.67 220.024 518.15 220.024ZM527.227 219.664V187.204H533.707V193.744L533.107 192.784C533.827 190.664 534.987 189.144 536.587 188.224C538.187 187.264 540.107 186.784 542.347 186.784H544.327V192.964H541.507C539.267 192.964 537.447 193.664 536.047 195.064C534.687 196.424 534.007 198.384 534.007 200.944V219.664H527.227ZM550.645 232.924C549.845 232.924 549.045 232.844 548.245 232.684C547.485 232.564 546.785 232.364 546.145 232.084V226.264C546.625 226.384 547.205 226.484 547.885 226.564C548.565 226.684 549.225 226.744 549.865 226.744C551.745 226.744 553.125 226.324 554.005 225.484C554.925 224.684 555.745 223.424 556.465 221.704L558.625 216.784L558.505 222.484L544.465 187.204H551.725L562.105 214.264H559.645L569.965 187.204H577.285L562.945 223.204C562.185 225.124 561.225 226.804 560.065 228.244C558.945 229.724 557.605 230.864 556.045 231.664C554.525 232.504 552.725 232.924 550.645 232.924ZM590.674 219.664V174.964H619.774V181.264H597.754V194.704H617.374V201.004H597.754V219.664H590.674ZM623.853 219.664V174.244H630.633V219.664H623.853ZM647.08 220.384C644.88 220.384 642.94 220.004 641.26 219.244C639.62 218.444 638.34 217.364 637.42 216.004C636.5 214.604 636.04 212.964 636.04 211.084C636.04 209.324 636.42 207.744 637.18 206.344C637.98 204.944 639.2 203.764 640.84 202.804C642.48 201.844 644.54 201.164 647.02 200.764L658.3 198.904V204.244L648.34 205.984C646.54 206.304 645.22 206.884 644.38 207.724C643.54 208.524 643.12 209.564 643.12 210.844C643.12 212.084 643.58 213.104 644.5 213.904C645.46 214.664 646.68 215.044 648.16 215.044C650 215.044 651.6 214.644 652.96 213.844C654.36 213.044 655.44 211.984 656.2 210.664C656.96 209.304 657.34 207.804 657.34 206.164V197.824C657.34 196.224 656.74 194.924 655.54 193.924C654.38 192.884 652.82 192.364 650.86 192.364C649.06 192.364 647.48 192.844 646.12 193.804C644.8 194.724 643.82 195.924 643.18 197.404L637.54 194.584C638.14 192.984 639.12 191.584 640.48 190.384C641.84 189.144 643.42 188.184 645.22 187.504C647.06 186.824 649 186.484 651.04 186.484C653.6 186.484 655.86 186.964 657.82 187.924C659.82 188.884 661.36 190.224 662.44 191.944C663.56 193.624 664.12 195.584 664.12 197.824V219.664H657.64V213.784L659.02 213.964C658.26 215.284 657.28 216.424 656.08 217.384C654.92 218.344 653.58 219.084 652.06 219.604C650.58 220.124 648.92 220.384 647.08 220.384ZM686.507 232.864C684.147 232.864 681.967 232.484 679.967 231.724C677.967 230.964 676.247 229.904 674.807 228.544C673.367 227.224 672.287 225.664 671.567 223.864L677.807 221.284C678.367 222.804 679.387 224.064 680.867 225.064C682.387 226.064 684.247 226.564 686.447 226.564C688.167 226.564 689.707 226.224 691.067 225.544C692.427 224.904 693.507 223.944 694.307 222.664C695.107 221.424 695.507 219.924 695.507 218.164V210.844L696.707 212.224C695.587 214.304 694.027 215.884 692.027 216.964C690.067 218.044 687.847 218.584 685.367 218.584C682.367 218.584 679.667 217.884 677.267 216.484C674.867 215.084 672.967 213.164 671.567 210.724C670.207 208.284 669.527 205.544 669.527 202.504C669.527 199.424 670.207 196.684 671.567 194.284C672.967 191.884 674.847 189.984 677.207 188.584C679.567 187.184 682.267 186.484 685.307 186.484C687.787 186.484 689.987 187.024 691.907 188.104C693.867 189.144 695.467 190.664 696.707 192.664L695.807 194.344V187.204H702.227V218.164C702.227 220.964 701.547 223.464 700.187 225.664C698.867 227.904 697.027 229.664 694.667 230.944C692.307 232.224 689.587 232.864 686.507 232.864ZM686.147 212.284C687.947 212.284 689.547 211.864 690.947 211.024C692.347 210.144 693.447 208.984 694.247 207.544C695.087 206.064 695.507 204.404 695.507 202.564C695.507 200.724 695.087 199.064 694.247 197.584C693.407 196.104 692.287 194.944 690.887 194.104C689.487 193.224 687.907 192.784 686.147 192.784C684.307 192.784 682.667 193.224 681.227 194.104C679.787 194.944 678.647 196.104 677.807 197.584C677.007 199.024 676.607 200.684 676.607 202.564C676.607 204.364 677.007 206.004 677.807 207.484C678.647 208.964 679.787 210.144 681.227 211.024C682.667 211.864 684.307 212.284 686.147 212.284ZM718.912 219.664V174.964H725.992V219.664H718.912ZM733.399 219.664V187.204H739.879V194.224L739.039 193.144C739.719 190.944 740.959 189.284 742.759 188.164C744.559 187.044 746.619 186.484 748.939 186.484C751.539 186.484 753.839 187.184 755.839 188.584C757.879 189.944 759.239 191.764 759.919 194.044L757.999 194.224C758.959 191.624 760.419 189.684 762.379 188.404C764.379 187.124 766.659 186.484 769.219 186.484C771.459 186.484 773.479 187.004 775.279 188.044C777.119 189.084 778.579 190.524 779.659 192.364C780.739 194.204 781.279 196.304 781.279 198.664V219.664H774.499V200.524C774.499 198.884 774.199 197.504 773.599 196.384C773.039 195.224 772.239 194.344 771.199 193.744C770.199 193.104 769.019 192.784 767.659 192.784C766.299 192.784 765.099 193.104 764.059 193.744C763.019 194.344 762.199 195.224 761.599 196.384C760.999 197.544 760.699 198.924 760.699 200.524V219.664H753.979V200.524C753.979 198.884 753.679 197.504 753.079 196.384C752.519 195.224 751.719 194.344 750.679 193.744C749.679 193.104 748.479 192.784 747.079 192.784C745.719 192.784 744.519 193.104 743.479 193.744C742.439 194.344 741.619 195.224 741.019 196.384C740.459 197.544 740.179 198.924 740.179 200.524V219.664H733.399ZM797.056 220.384C794.856 220.384 792.916 220.004 791.236 219.244C789.596 218.444 788.316 217.364 787.396 216.004C786.476 214.604 786.016 212.964 786.016 211.084C786.016 209.324 786.396 207.744 787.156 206.344C787.956 204.944 789.176 203.764 790.816 202.804C792.456 201.844 794.516 201.164 796.996 200.764L808.276 198.904V204.244L798.316 205.984C796.516 206.304 795.196 206.884 794.356 207.724C793.516 208.524 793.096 209.564 793.096 210.844C793.096 212.084 793.556 213.104 794.476 213.904C795.436 214.664 796.656 215.044 798.136 215.044C799.976 215.044 801.576 214.644 802.936 213.844C804.336 213.044 805.416 211.984 806.176 210.664C806.936 209.304 807.316 207.804 807.316 206.164V197.824C807.316 196.224 806.716 194.924 805.516 193.924C804.356 192.884 802.796 192.364 800.836 192.364C799.036 192.364 797.456 192.844 796.096 193.804C794.776 194.724 793.796 195.924 793.156 197.404L787.516 194.584C788.116 192.984 789.096 191.584 790.456 190.384C791.816 189.144 793.396 188.184 795.196 187.504C797.036 186.824 798.976 186.484 801.016 186.484C803.576 186.484 805.836 186.964 807.796 187.924C809.796 188.884 811.336 190.224 812.416 191.944C813.536 193.624 814.096 195.584 814.096 197.824V219.664H807.616V213.784L808.996 213.964C808.236 215.284 807.256 216.424 806.056 217.384C804.896 218.344 803.556 219.084 802.036 219.604C800.556 220.124 798.896 220.384 797.056 220.384ZM836.484 232.864C834.124 232.864 831.944 232.484 829.944 231.724C827.944 230.964 826.224 229.904 824.784 228.544C823.344 227.224 822.264 225.664 821.544 223.864L827.784 221.284C828.344 222.804 829.364 224.064 830.844 225.064C832.364 226.064 834.224 226.564 836.424 226.564C838.144 226.564 839.684 226.224 841.044 225.544C842.404 224.904 843.484 223.944 844.284 222.664C845.084 221.424 845.484 219.924 845.484 218.164V210.844L846.684 212.224C845.564 214.304 844.004 215.884 842.004 216.964C840.044 218.044 837.824 218.584 835.344 218.584C832.344 218.584 829.644 217.884 827.244 216.484C824.844 215.084 822.944 213.164 821.544 210.724C820.184 208.284 819.504 205.544 819.504 202.504C819.504 199.424 820.184 196.684 821.544 194.284C822.944 191.884 824.824 189.984 827.184 188.584C829.544 187.184 832.244 186.484 835.284 186.484C837.764 186.484 839.964 187.024 841.884 188.104C843.844 189.144 845.444 190.664 846.684 192.664L845.784 194.344V187.204H852.204V218.164C852.204 220.964 851.524 223.464 850.164 225.664C848.844 227.904 847.004 229.664 844.644 230.944C842.284 232.224 839.564 232.864 836.484 232.864ZM836.124 212.284C837.924 212.284 839.524 211.864 840.924 211.024C842.324 210.144 843.424 208.984 844.224 207.544C845.064 206.064 845.484 204.404 845.484 202.564C845.484 200.724 845.064 199.064 844.224 197.584C843.384 196.104 842.264 194.944 840.864 194.104C839.464 193.224 837.884 192.784 836.124 192.784C834.284 192.784 832.644 193.224 831.204 194.104C829.764 194.944 828.624 196.104 827.784 197.584C826.984 199.024 826.584 200.684 826.584 202.564C826.584 204.364 826.984 206.004 827.784 207.484C828.624 208.964 829.764 210.144 831.204 211.024C832.644 211.864 834.284 212.284 836.124 212.284ZM874.18 220.384C870.94 220.384 868.06 219.644 865.54 218.164C863.06 216.644 861.12 214.604 859.72 212.044C858.32 209.444 857.62 206.544 857.62 203.344C857.62 200.064 858.32 197.164 859.72 194.644C861.16 192.124 863.08 190.144 865.48 188.704C867.88 187.224 870.6 186.484 873.64 186.484C876.08 186.484 878.26 186.904 880.18 187.744C882.1 188.584 883.72 189.744 885.04 191.224C886.36 192.664 887.36 194.324 888.04 196.204C888.76 198.084 889.12 200.084 889.12 202.204C889.12 202.724 889.1 203.264 889.06 203.824C889.02 204.384 888.94 204.904 888.82 205.384H862.96V199.984H884.98L881.74 202.444C882.14 200.484 882 198.744 881.32 197.224C880.68 195.664 879.68 194.444 878.32 193.564C877 192.644 875.44 192.184 873.64 192.184C871.84 192.184 870.24 192.644 868.84 193.564C867.44 194.444 866.36 195.724 865.6 197.404C864.84 199.044 864.54 201.044 864.7 203.404C864.5 205.604 864.8 207.524 865.6 209.164C866.44 210.804 867.6 212.084 869.08 213.004C870.6 213.924 872.32 214.384 874.24 214.384C876.2 214.384 877.86 213.944 879.22 213.064C880.62 212.184 881.72 211.044 882.52 209.644L888.04 212.344C887.4 213.864 886.4 215.244 885.04 216.484C883.72 217.684 882.12 218.644 880.24 219.364C878.4 220.044 876.38 220.384 874.18 220.384ZM906.537 220.384C903.217 220.384 900.297 219.564 897.777 217.924C895.297 216.284 893.557 214.084 892.557 211.324L897.777 208.864C898.657 210.704 899.857 212.164 901.377 213.244C902.937 214.324 904.657 214.864 906.537 214.864C908.137 214.864 909.437 214.504 910.437 213.784C911.437 213.064 911.937 212.084 911.937 210.844C911.937 210.044 911.717 209.404 911.277 208.924C910.837 208.404 910.277 207.984 909.597 207.664C908.957 207.344 908.297 207.104 907.617 206.944L902.517 205.504C899.717 204.704 897.617 203.504 896.217 201.904C894.857 200.264 894.177 198.364 894.177 196.204C894.177 194.244 894.677 192.544 895.677 191.104C896.677 189.624 898.057 188.484 899.817 187.684C901.577 186.884 903.557 186.484 905.757 186.484C908.717 186.484 911.357 187.224 913.677 188.704C915.997 190.144 917.637 192.164 918.597 194.764L913.377 197.224C912.737 195.664 911.717 194.424 910.317 193.504C908.957 192.584 907.417 192.124 905.697 192.124C904.217 192.124 903.037 192.484 902.157 193.204C901.277 193.884 900.837 194.784 900.837 195.904C900.837 196.664 901.037 197.304 901.437 197.824C901.837 198.304 902.357 198.704 902.997 199.024C903.637 199.304 904.297 199.544 904.977 199.744L910.257 201.304C912.937 202.064 914.997 203.264 916.437 204.904C917.877 206.504 918.597 208.424 918.597 210.664C918.597 212.584 918.077 214.284 917.037 215.764C916.037 217.204 914.637 218.344 912.837 219.184C911.037 219.984 908.937 220.384 906.537 220.384ZM927.34 206.344L926.86 174.964H933.76L933.34 206.344H927.34ZM926.86 219.664V211.864H933.76V219.664H926.86Z" fill="url(#paint0_linear_2227_320)"/>
<path d="M453.545 273.664V261.744H461.305V263.424H455.433V267.008H460.665V268.688H455.433V273.664H453.545ZM462.228 273.664V265.008H463.956V266.752L463.796 266.496C463.988 265.931 464.297 265.525 464.724 265.28C465.151 265.024 465.663 264.896 466.26 264.896H466.788V266.544H466.036C465.439 266.544 464.953 266.731 464.58 267.104C464.217 267.467 464.036 267.989 464.036 268.672V273.664H462.228ZM472.089 273.856C471.225 273.856 470.457 273.659 469.785 273.264C469.123 272.859 468.606 272.315 468.233 271.632C467.859 270.939 467.673 270.165 467.673 269.312C467.673 268.437 467.859 267.664 468.233 266.992C468.617 266.32 469.129 265.792 469.769 265.408C470.409 265.013 471.134 264.816 471.945 264.816C472.595 264.816 473.177 264.928 473.689 265.152C474.201 265.376 474.633 265.685 474.985 266.08C475.337 266.464 475.603 266.907 475.785 267.408C475.977 267.909 476.073 268.443 476.073 269.008C476.073 269.147 476.067 269.291 476.057 269.44C476.046 269.589 476.025 269.728 475.993 269.856H469.097V268.416H474.969L474.105 269.072C474.211 268.549 474.174 268.085 473.993 267.68C473.822 267.264 473.555 266.939 473.193 266.704C472.841 266.459 472.425 266.336 471.945 266.336C471.465 266.336 471.038 266.459 470.665 266.704C470.291 266.939 470.003 267.28 469.801 267.728C469.598 268.165 469.518 268.699 469.561 269.328C469.507 269.915 469.587 270.427 469.801 270.864C470.025 271.301 470.334 271.643 470.729 271.888C471.134 272.133 471.593 272.256 472.105 272.256C472.627 272.256 473.07 272.139 473.433 271.904C473.806 271.669 474.099 271.365 474.313 270.992L475.785 271.712C475.614 272.117 475.347 272.485 474.985 272.816C474.633 273.136 474.206 273.392 473.705 273.584C473.214 273.765 472.675 273.856 472.089 273.856ZM481.901 273.856C481.037 273.856 480.269 273.659 479.597 273.264C478.936 272.859 478.419 272.315 478.045 271.632C477.672 270.939 477.485 270.165 477.485 269.312C477.485 268.437 477.672 267.664 478.045 266.992C478.429 266.32 478.941 265.792 479.581 265.408C480.221 265.013 480.947 264.816 481.757 264.816C482.408 264.816 482.989 264.928 483.501 265.152C484.013 265.376 484.445 265.685 484.797 266.08C485.149 266.464 485.416 266.907 485.597 267.408C485.789 267.909 485.885 268.443 485.885 269.008C485.885 269.147 485.88 269.291 485.869 269.44C485.859 269.589 485.837 269.728 485.805 269.856H478.909V268.416H484.781L483.917 269.072C484.024 268.549 483.987 268.085 483.805 267.68C483.635 267.264 483.368 266.939 483.005 266.704C482.653 266.459 482.237 266.336 481.757 266.336C481.277 266.336 480.851 266.459 480.477 266.704C480.104 266.939 479.816 267.28 479.613 267.728C479.411 268.165 479.331 268.699 479.373 269.328C479.32 269.915 479.4 270.427 479.613 270.864C479.837 271.301 480.147 271.643 480.541 271.888C480.947 272.133 481.405 272.256 481.917 272.256C482.44 272.256 482.883 272.139 483.245 271.904C483.619 271.669 483.912 271.365 484.125 270.992L485.597 271.712C485.427 272.117 485.16 272.485 484.797 272.816C484.445 273.136 484.019 273.392 483.517 273.584C483.027 273.765 482.488 273.856 481.901 273.856Z" fill="#797979"/>
<path d="M501.276 268.664C501.664 268.664 502.01 268.577 502.315 268.404C502.62 268.224 502.862 267.982 503.042 267.677C503.222 267.372 503.312 267.023 503.312 266.628C503.312 266.261 503.226 265.932 503.053 265.641C502.873 265.343 502.63 265.107 502.325 264.934C502.021 264.754 501.671 264.664 501.276 264.664C500.902 264.664 500.57 264.754 500.279 264.934C499.988 265.107 499.756 265.343 499.583 265.641C499.409 265.939 499.319 266.268 499.312 266.628C499.312 267.023 499.399 267.372 499.572 267.677C499.745 267.982 499.981 268.224 500.279 268.404C500.577 268.577 500.909 268.664 501.276 268.664Z" fill="#797979"/>
<path d="M516.113 273.664V272.304L519.377 268.816C520.017 268.133 520.518 267.584 520.881 267.168C521.254 266.741 521.521 266.368 521.681 266.048C521.851 265.728 521.937 265.392 521.937 265.04C521.937 264.464 521.761 264.021 521.409 263.712C521.057 263.392 520.603 263.232 520.049 263.232C519.473 263.232 518.977 263.397 518.561 263.728C518.145 264.048 517.857 264.517 517.697 265.136L516.033 264.656C516.161 264.027 516.417 263.483 516.801 263.024C517.185 262.555 517.654 262.192 518.209 261.936C518.774 261.68 519.382 261.552 520.033 261.552C520.79 261.552 521.451 261.696 522.017 261.984C522.582 262.261 523.019 262.651 523.329 263.152C523.649 263.653 523.809 264.235 523.809 264.896C523.809 265.333 523.723 265.76 523.553 266.176C523.393 266.581 523.142 267.013 522.801 267.472C522.459 267.92 522.022 268.427 521.489 268.992L518.609 272.064H524.033V273.664H516.113ZM529.659 273.856C529.03 273.856 528.438 273.744 527.883 273.52C527.328 273.285 526.848 272.96 526.443 272.544C526.038 272.128 525.75 271.627 525.579 271.04L527.163 270.432C527.366 270.997 527.696 271.429 528.155 271.728C528.614 272.027 529.115 272.176 529.659 272.176C530.107 272.176 530.502 272.075 530.843 271.872C531.184 271.669 531.451 271.392 531.643 271.04C531.846 270.688 531.947 270.288 531.947 269.84C531.947 269.381 531.846 268.981 531.643 268.64C531.451 268.288 531.184 268.016 530.843 267.824C530.502 267.621 530.107 267.52 529.659 267.52C529.211 267.52 528.8 267.621 528.427 267.824C528.054 268.027 527.782 268.299 527.611 268.64L526.091 268.304L527.019 261.744H533.371V263.344H527.755L528.475 262.56L527.787 267.584L527.195 267.184C527.515 266.736 527.904 266.411 528.363 266.208C528.822 266.005 529.344 265.904 529.931 265.904C530.71 265.904 531.387 266.08 531.963 266.432C532.55 266.773 533.003 267.243 533.323 267.84C533.654 268.427 533.819 269.093 533.819 269.84C533.819 270.597 533.638 271.28 533.275 271.888C532.912 272.496 532.416 272.976 531.787 273.328C531.168 273.68 530.459 273.856 529.659 273.856ZM541.023 273.664V270.976H535.343V269.408L540.943 261.744H542.815V269.408H544.463V270.976H542.815V273.664H541.023ZM536.735 270.096L536.431 269.408H541.023V263.248L541.535 263.408L536.735 270.096ZM552.211 273.664V270.448H548.995V268.848H552.211V265.664H553.811V268.848H556.995V270.448H553.811V273.664H552.211ZM565.706 273.856C565.077 273.856 564.485 273.744 563.93 273.52C563.375 273.285 562.895 272.96 562.49 272.544C562.085 272.128 561.797 271.627 561.626 271.04L563.21 270.432C563.413 270.997 563.743 271.429 564.202 271.728C564.661 272.027 565.162 272.176 565.706 272.176C566.154 272.176 566.549 272.075 566.89 271.872C567.231 271.669 567.498 271.392 567.69 271.04C567.893 270.688 567.994 270.288 567.994 269.84C567.994 269.381 567.893 268.981 567.69 268.64C567.498 268.288 567.231 268.016 566.89 267.824C566.549 267.621 566.154 267.52 565.706 267.52C565.258 267.52 564.847 267.621 564.474 267.824C564.101 268.027 563.829 268.299 563.658 268.64L562.138 268.304L563.066 261.744H569.418V263.344H563.802L564.522 262.56L563.834 267.584L563.242 267.184C563.562 266.736 563.951 266.411 564.41 266.208C564.869 266.005 565.391 265.904 565.978 265.904C566.757 265.904 567.434 266.08 568.01 266.432C568.597 266.773 569.05 267.243 569.37 267.84C569.701 268.427 569.866 269.093 569.866 269.84C569.866 270.597 569.685 271.28 569.322 271.888C568.959 272.496 568.463 272.976 567.834 273.328C567.215 273.68 566.506 273.856 565.706 273.856ZM576.51 273.856C575.56 273.856 574.728 273.6 574.014 273.088C573.299 272.565 572.739 271.845 572.334 270.928C571.939 270 571.742 268.923 571.742 267.696C571.742 266.459 571.939 265.381 572.334 264.464C572.739 263.547 573.294 262.832 573.998 262.32C574.712 261.808 575.544 261.552 576.494 261.552C577.443 261.552 578.27 261.808 578.974 262.32C579.688 262.832 580.243 263.552 580.638 264.48C581.043 265.397 581.246 266.469 581.246 267.696C581.246 268.923 581.048 270 580.654 270.928C580.259 271.845 579.704 272.565 578.99 273.088C578.286 273.6 577.459 273.856 576.51 273.856ZM576.51 272.128C577.096 272.128 577.603 271.947 578.03 271.584C578.456 271.221 578.787 270.709 579.022 270.048C579.256 269.387 579.374 268.603 579.374 267.696C579.374 266.789 579.256 266.005 579.022 265.344C578.787 264.683 578.456 264.171 578.03 263.808C577.603 263.445 577.091 263.264 576.494 263.264C575.907 263.264 575.4 263.445 574.974 263.808C574.547 264.171 574.216 264.683 573.982 265.344C573.747 266.005 573.63 266.789 573.63 267.696C573.63 268.592 573.747 269.376 573.982 270.048C574.216 270.709 574.547 271.221 574.974 271.584C575.411 271.947 575.923 272.128 576.51 272.128ZM587.048 273.664V266.64H585.448V265.008H587.048V264.56C587.048 263.909 587.181 263.365 587.448 262.928C587.714 262.48 588.082 262.139 588.552 261.904C589.032 261.669 589.581 261.552 590.2 261.552C590.317 261.552 590.45 261.563 590.6 261.584C590.749 261.595 590.872 261.611 590.968 261.632V263.2C590.882 263.179 590.786 263.168 590.68 263.168C590.573 263.157 590.488 263.152 590.424 263.152C589.944 263.152 589.56 263.264 589.272 263.488C588.984 263.701 588.84 264.059 588.84 264.56V265.008H592.984V266.64H588.84V273.664H587.048ZM592.504 273.664V261.552H594.296V273.664H592.504ZM599.007 273.856C598.421 273.856 597.903 273.755 597.455 273.552C597.018 273.339 596.677 273.051 596.431 272.688C596.186 272.315 596.063 271.877 596.063 271.376C596.063 270.907 596.165 270.485 596.367 270.112C596.581 269.739 596.906 269.424 597.343 269.168C597.781 268.912 598.33 268.731 598.991 268.624L601.999 268.128V269.552L599.343 270.016C598.863 270.101 598.511 270.256 598.287 270.48C598.063 270.693 597.951 270.971 597.951 271.312C597.951 271.643 598.074 271.915 598.319 272.128C598.575 272.331 598.901 272.432 599.295 272.432C599.786 272.432 600.213 272.325 600.575 272.112C600.949 271.899 601.237 271.616 601.439 271.264C601.642 270.901 601.743 270.501 601.743 270.064V267.84C601.743 267.413 601.583 267.067 601.263 266.8C600.954 266.523 600.538 266.384 600.015 266.384C599.535 266.384 599.114 266.512 598.751 266.768C598.399 267.013 598.138 267.333 597.967 267.728L596.463 266.976C596.623 266.549 596.885 266.176 597.247 265.856C597.61 265.525 598.031 265.269 598.511 265.088C599.002 264.907 599.519 264.816 600.063 264.816C600.746 264.816 601.349 264.944 601.871 265.2C602.405 265.456 602.815 265.813 603.103 266.272C603.402 266.72 603.551 267.243 603.551 267.84V273.664H601.823V272.096L602.191 272.144C601.989 272.496 601.727 272.8 601.407 273.056C601.098 273.312 600.741 273.509 600.335 273.648C599.941 273.787 599.498 273.856 599.007 273.856ZM609.841 277.184C609.212 277.184 608.631 277.083 608.097 276.88C607.564 276.677 607.105 276.395 606.721 276.032C606.337 275.68 606.049 275.264 605.857 274.784L607.521 274.096C607.671 274.501 607.943 274.837 608.337 275.104C608.743 275.371 609.239 275.504 609.825 275.504C610.284 275.504 610.695 275.413 611.057 275.232C611.42 275.061 611.708 274.805 611.921 274.464C612.135 274.133 612.241 273.733 612.241 273.264V271.312L612.561 271.68C612.263 272.235 611.847 272.656 611.313 272.944C610.791 273.232 610.199 273.376 609.537 273.376C608.737 273.376 608.017 273.189 607.377 272.816C606.737 272.443 606.231 271.931 605.857 271.28C605.495 270.629 605.313 269.899 605.313 269.088C605.313 268.267 605.495 267.536 605.857 266.896C606.231 266.256 606.732 265.749 607.361 265.376C607.991 265.003 608.711 264.816 609.521 264.816C610.183 264.816 610.769 264.96 611.281 265.248C611.804 265.525 612.231 265.931 612.561 266.464L612.321 266.912V265.008H614.033V273.264C614.033 274.011 613.852 274.677 613.489 275.264C613.137 275.861 612.647 276.331 612.017 276.672C611.388 277.013 610.663 277.184 609.841 277.184ZM609.745 271.696C610.225 271.696 610.652 271.584 611.025 271.36C611.399 271.125 611.692 270.816 611.905 270.432C612.129 270.037 612.241 269.595 612.241 269.104C612.241 268.613 612.129 268.171 611.905 267.776C611.681 267.381 611.383 267.072 611.009 266.848C610.636 266.613 610.215 266.496 609.745 266.496C609.255 266.496 608.817 266.613 608.433 266.848C608.049 267.072 607.745 267.381 607.521 267.776C607.308 268.16 607.201 268.603 607.201 269.104C607.201 269.584 607.308 270.021 607.521 270.416C607.745 270.811 608.049 271.125 608.433 271.36C608.817 271.584 609.255 271.696 609.745 271.696ZM619.35 273.856C618.464 273.856 617.686 273.637 617.014 273.2C616.352 272.763 615.888 272.176 615.622 271.44L617.014 270.784C617.248 271.275 617.568 271.664 617.974 271.952C618.39 272.24 618.848 272.384 619.35 272.384C619.776 272.384 620.123 272.288 620.39 272.096C620.656 271.904 620.79 271.643 620.79 271.312C620.79 271.099 620.731 270.928 620.614 270.8C620.496 270.661 620.347 270.549 620.166 270.464C619.995 270.379 619.819 270.315 619.638 270.272L618.278 269.888C617.531 269.675 616.971 269.355 616.598 268.928C616.235 268.491 616.054 267.984 616.054 267.408C616.054 266.885 616.187 266.432 616.454 266.048C616.72 265.653 617.088 265.349 617.558 265.136C618.027 264.923 618.555 264.816 619.142 264.816C619.931 264.816 620.635 265.013 621.254 265.408C621.872 265.792 622.31 266.331 622.566 267.024L621.174 267.68C621.003 267.264 620.731 266.933 620.358 266.688C619.995 266.443 619.584 266.32 619.126 266.32C618.731 266.32 618.416 266.416 618.182 266.608C617.947 266.789 617.83 267.029 617.83 267.328C617.83 267.531 617.883 267.701 617.99 267.84C618.096 267.968 618.235 268.075 618.406 268.16C618.576 268.235 618.752 268.299 618.934 268.352L620.342 268.768C621.056 268.971 621.606 269.291 621.99 269.728C622.374 270.155 622.566 270.667 622.566 271.264C622.566 271.776 622.427 272.229 622.15 272.624C621.883 273.008 621.51 273.312 621.03 273.536C620.55 273.749 619.99 273.856 619.35 273.856ZM631.31 273.856C630.478 273.856 629.715 273.659 629.022 273.264C628.339 272.869 627.795 272.331 627.39 271.648C626.985 270.965 626.782 270.192 626.782 269.328C626.782 268.453 626.985 267.68 627.39 267.008C627.795 266.325 628.339 265.792 629.022 265.408C629.705 265.013 630.467 264.816 631.31 264.816C632.163 264.816 632.926 265.013 633.598 265.408C634.281 265.792 634.819 266.325 635.214 267.008C635.619 267.68 635.822 268.453 635.822 269.328C635.822 270.203 635.619 270.981 635.214 271.664C634.809 272.347 634.265 272.885 633.582 273.28C632.899 273.664 632.142 273.856 631.31 273.856ZM631.31 272.176C631.822 272.176 632.275 272.053 632.67 271.808C633.065 271.563 633.374 271.227 633.598 270.8C633.833 270.363 633.95 269.872 633.95 269.328C633.95 268.784 633.833 268.299 633.598 267.872C633.374 267.445 633.065 267.109 632.67 266.864C632.275 266.619 631.822 266.496 631.31 266.496C630.809 266.496 630.355 266.619 629.95 266.864C629.555 267.109 629.241 267.445 629.006 267.872C628.782 268.299 628.67 268.784 628.67 269.328C628.67 269.872 628.782 270.363 629.006 270.8C629.241 271.227 629.555 271.563 629.95 271.808C630.355 272.053 630.809 272.176 631.31 272.176ZM638.329 273.664V266.64H636.729V265.008H638.329V264.56C638.329 263.909 638.462 263.365 638.729 262.928C638.996 262.48 639.364 262.139 639.833 261.904C640.313 261.669 640.862 261.552 641.481 261.552C641.598 261.552 641.732 261.563 641.881 261.584C642.03 261.595 642.153 261.611 642.249 261.632V263.2C642.164 263.179 642.068 263.168 641.961 263.168C641.854 263.157 641.769 263.152 641.705 263.152C641.225 263.152 640.841 263.264 640.553 263.488C640.265 263.701 640.121 264.059 640.121 264.56V265.008H642.105V266.64H640.121V273.664H638.329ZM650.331 273.76C649.425 273.76 648.721 273.504 648.219 272.992C647.718 272.48 647.467 271.76 647.467 270.832V266.64H645.947V265.008H646.187C646.593 265.008 646.907 264.891 647.131 264.656C647.355 264.421 647.467 264.101 647.467 263.696V263.024H649.275V265.008H651.243V266.64H649.275V270.752C649.275 271.051 649.323 271.307 649.419 271.52C649.515 271.723 649.67 271.883 649.883 272C650.097 272.107 650.374 272.16 650.715 272.16C650.801 272.16 650.897 272.155 651.003 272.144C651.11 272.133 651.211 272.123 651.307 272.112V273.664C651.158 273.685 650.993 273.707 650.811 273.728C650.63 273.749 650.47 273.76 650.331 273.76ZM653.072 273.664V261.552H654.88V266.704L654.592 266.48C654.805 265.936 655.146 265.525 655.616 265.248C656.085 264.96 656.629 264.816 657.248 264.816C657.888 264.816 658.453 264.955 658.944 265.232C659.434 265.509 659.818 265.893 660.096 266.384C660.373 266.875 660.512 267.435 660.512 268.064V273.664H658.72V268.56C658.72 268.123 658.634 267.755 658.464 267.456C658.304 267.147 658.08 266.912 657.792 266.752C657.504 266.581 657.173 266.496 656.8 266.496C656.437 266.496 656.106 266.581 655.808 266.752C655.52 266.912 655.29 267.147 655.12 267.456C654.96 267.765 654.88 268.133 654.88 268.56V273.664H653.072ZM666.511 273.856C665.647 273.856 664.879 273.659 664.207 273.264C663.545 272.859 663.028 272.315 662.655 271.632C662.281 270.939 662.095 270.165 662.095 269.312C662.095 268.437 662.281 267.664 662.655 266.992C663.039 266.32 663.551 265.792 664.191 265.408C664.831 265.013 665.556 264.816 666.367 264.816C667.017 264.816 667.599 264.928 668.111 265.152C668.623 265.376 669.055 265.685 669.407 266.08C669.759 266.464 670.025 266.907 670.207 267.408C670.399 267.909 670.495 268.443 670.495 269.008C670.495 269.147 670.489 269.291 670.479 269.44C670.468 269.589 670.447 269.728 670.415 269.856H663.519V268.416H669.391L668.527 269.072C668.633 268.549 668.596 268.085 668.415 267.68C668.244 267.264 667.977 266.939 667.615 266.704C667.263 266.459 666.847 266.336 666.367 266.336C665.887 266.336 665.46 266.459 665.087 266.704C664.713 266.939 664.425 267.28 664.223 267.728C664.02 268.165 663.94 268.699 663.983 269.328C663.929 269.915 664.009 270.427 664.223 270.864C664.447 271.301 664.756 271.643 665.151 271.888C665.556 272.133 666.015 272.256 666.527 272.256C667.049 272.256 667.492 272.139 667.855 271.904C668.228 271.669 668.521 271.365 668.735 270.992L670.207 271.712C670.036 272.117 669.769 272.485 669.407 272.816C669.055 273.136 668.628 273.392 668.127 273.584C667.636 273.765 667.097 273.856 666.511 273.856ZM679.696 273.856C678.811 273.856 678.021 273.669 677.328 273.296C676.645 272.923 676.107 272.411 675.712 271.76C675.328 271.109 675.136 270.368 675.136 269.536V261.744H677.024V269.456C677.024 269.979 677.136 270.443 677.36 270.848C677.595 271.253 677.909 271.568 678.304 271.792C678.709 272.016 679.173 272.128 679.696 272.128C680.229 272.128 680.693 272.016 681.088 271.792C681.493 271.568 681.808 271.253 682.032 270.848C682.267 270.443 682.384 269.979 682.384 269.456V261.744H684.256V269.536C684.256 270.368 684.064 271.109 683.68 271.76C683.296 272.411 682.757 272.923 682.064 273.296C681.381 273.669 680.592 273.856 679.696 273.856ZM687.247 273.664V271.584H689.087V273.664H687.247ZM696.346 273.856C695.599 273.856 694.906 273.717 694.266 273.44C693.626 273.152 693.082 272.763 692.634 272.272C692.186 271.781 691.855 271.216 691.642 270.576L693.242 269.904C693.53 270.64 693.951 271.205 694.506 271.6C695.06 271.995 695.7 272.192 696.426 272.192C696.852 272.192 697.226 272.128 697.546 272C697.866 271.861 698.111 271.669 698.282 271.424C698.463 271.179 698.554 270.896 698.554 270.576C698.554 270.139 698.431 269.792 698.186 269.536C697.94 269.28 697.578 269.077 697.098 268.928L694.858 268.224C693.962 267.947 693.279 267.525 692.81 266.96C692.34 266.384 692.106 265.712 692.106 264.944C692.106 264.272 692.271 263.685 692.602 263.184C692.932 262.672 693.386 262.272 693.962 261.984C694.548 261.696 695.215 261.552 695.962 261.552C696.676 261.552 697.327 261.68 697.914 261.936C698.5 262.181 699.002 262.523 699.418 262.96C699.844 263.397 700.154 263.904 700.345 264.48L698.778 265.168C698.543 264.539 698.175 264.053 697.674 263.712C697.183 263.371 696.612 263.2 695.962 263.2C695.567 263.2 695.22 263.269 694.922 263.408C694.623 263.536 694.388 263.728 694.218 263.984C694.058 264.229 693.978 264.517 693.978 264.848C693.978 265.232 694.1 265.573 694.346 265.872C694.591 266.171 694.964 266.395 695.466 266.544L697.546 267.2C698.495 267.488 699.21 267.904 699.69 268.448C700.17 268.981 700.41 269.648 700.41 270.448C700.41 271.109 700.234 271.696 699.882 272.208C699.54 272.72 699.066 273.125 698.458 273.424C697.85 273.712 697.146 273.856 696.346 273.856ZM703.153 273.664V271.584H704.993V273.664H703.153ZM713.897 273.856C713.011 273.856 712.233 273.637 711.561 273.2C710.899 272.763 710.435 272.176 710.169 271.44L711.561 270.784C711.795 271.275 712.115 271.664 712.521 271.952C712.937 272.24 713.395 272.384 713.897 272.384C714.323 272.384 714.67 272.288 714.937 272.096C715.203 271.904 715.337 271.643 715.337 271.312C715.337 271.099 715.278 270.928 715.161 270.8C715.043 270.661 714.894 270.549 714.713 270.464C714.542 270.379 714.366 270.315 714.185 270.272L712.825 269.888C712.078 269.675 711.518 269.355 711.145 268.928C710.782 268.491 710.601 267.984 710.601 267.408C710.601 266.885 710.734 266.432 711.001 266.048C711.267 265.653 711.635 265.349 712.105 265.136C712.574 264.923 713.102 264.816 713.689 264.816C714.478 264.816 715.182 265.013 715.801 265.408C716.419 265.792 716.857 266.331 717.113 267.024L715.721 267.68C715.55 267.264 715.278 266.933 714.905 266.688C714.542 266.443 714.131 266.32 713.673 266.32C713.278 266.32 712.963 266.416 712.729 266.608C712.494 266.789 712.377 267.029 712.377 267.328C712.377 267.531 712.43 267.701 712.537 267.84C712.643 267.968 712.782 268.075 712.953 268.16C713.123 268.235 713.299 268.299 713.481 268.352L714.889 268.768C715.603 268.971 716.153 269.291 716.537 269.728C716.921 270.155 717.113 270.667 717.113 271.264C717.113 271.776 716.974 272.229 716.697 272.624C716.43 273.008 716.057 273.312 715.577 273.536C715.097 273.749 714.537 273.856 713.897 273.856ZM722.628 273.76C721.721 273.76 721.017 273.504 720.516 272.992C720.015 272.48 719.764 271.76 719.764 270.832V266.64H718.244V265.008H718.484C718.889 265.008 719.204 264.891 719.428 264.656C719.652 264.421 719.764 264.101 719.764 263.696V263.024H721.572V265.008H723.54V266.64H721.572V270.752C721.572 271.051 721.62 271.307 721.716 271.52C721.812 271.723 721.967 271.883 722.18 272C722.393 272.107 722.671 272.16 723.012 272.16C723.097 272.16 723.193 272.155 723.3 272.144C723.407 272.133 723.508 272.123 723.604 272.112V273.664C723.455 273.685 723.289 273.707 723.108 273.728C722.927 273.749 722.767 273.76 722.628 273.76ZM727.882 273.856C727.296 273.856 726.778 273.755 726.33 273.552C725.893 273.339 725.552 273.051 725.306 272.688C725.061 272.315 724.938 271.877 724.938 271.376C724.938 270.907 725.04 270.485 725.242 270.112C725.456 269.739 725.781 269.424 726.218 269.168C726.656 268.912 727.205 268.731 727.866 268.624L730.874 268.128V269.552L728.218 270.016C727.738 270.101 727.386 270.256 727.162 270.48C726.938 270.693 726.826 270.971 726.826 271.312C726.826 271.643 726.949 271.915 727.194 272.128C727.45 272.331 727.776 272.432 728.17 272.432C728.661 272.432 729.088 272.325 729.45 272.112C729.824 271.899 730.112 271.616 730.314 271.264C730.517 270.901 730.618 270.501 730.618 270.064V267.84C730.618 267.413 730.458 267.067 730.138 266.8C729.829 266.523 729.413 266.384 728.89 266.384C728.41 266.384 727.989 266.512 727.626 266.768C727.274 267.013 727.013 267.333 726.842 267.728L725.338 266.976C725.498 266.549 725.76 266.176 726.122 265.856C726.485 265.525 726.906 265.269 727.386 265.088C727.877 264.907 728.394 264.816 728.938 264.816C729.621 264.816 730.224 264.944 730.746 265.2C731.28 265.456 731.69 265.813 731.978 266.272C732.277 266.72 732.426 267.243 732.426 267.84V273.664H730.698V272.096L731.066 272.144C730.864 272.496 730.602 272.8 730.282 273.056C729.973 273.312 729.616 273.509 729.21 273.648C728.816 273.787 728.373 273.856 727.882 273.856ZM738.128 273.76C737.221 273.76 736.517 273.504 736.016 272.992C735.515 272.48 735.264 271.76 735.264 270.832V266.64H733.744V265.008H733.984C734.389 265.008 734.704 264.891 734.928 264.656C735.152 264.421 735.264 264.101 735.264 263.696V263.024H737.072V265.008H739.04V266.64H737.072V270.752C737.072 271.051 737.12 271.307 737.216 271.52C737.312 271.723 737.467 271.883 737.68 272C737.893 272.107 738.171 272.16 738.512 272.16C738.597 272.16 738.693 272.155 738.8 272.144C738.907 272.133 739.008 272.123 739.104 272.112V273.664C738.955 273.685 738.789 273.707 738.608 273.728C738.427 273.749 738.267 273.76 738.128 273.76ZM744.776 273.856C743.912 273.856 743.144 273.659 742.472 273.264C741.811 272.859 741.294 272.315 740.92 271.632C740.547 270.939 740.36 270.165 740.36 269.312C740.36 268.437 740.547 267.664 740.92 266.992C741.304 266.32 741.816 265.792 742.456 265.408C743.096 265.013 743.822 264.816 744.632 264.816C745.283 264.816 745.864 264.928 746.376 265.152C746.888 265.376 747.32 265.685 747.672 266.08C748.024 266.464 748.291 266.907 748.472 267.408C748.664 267.909 748.76 268.443 748.76 269.008C748.76 269.147 748.755 269.291 748.744 269.44C748.734 269.589 748.712 269.728 748.68 269.856H741.784V268.416H747.656L746.792 269.072C746.899 268.549 746.862 268.085 746.68 267.68C746.51 267.264 746.243 266.939 745.88 266.704C745.528 266.459 745.112 266.336 744.632 266.336C744.152 266.336 743.726 266.459 743.352 266.704C742.979 266.939 742.691 267.28 742.488 267.728C742.286 268.165 742.206 268.699 742.248 269.328C742.195 269.915 742.275 270.427 742.488 270.864C742.712 271.301 743.022 271.643 743.416 271.888C743.822 272.133 744.28 272.256 744.792 272.256C745.315 272.256 745.758 272.139 746.12 271.904C746.494 271.669 746.787 271.365 747 270.992L748.472 271.712C748.302 272.117 748.035 272.485 747.672 272.816C747.32 273.136 746.894 273.392 746.392 273.584C745.902 273.765 745.363 273.856 744.776 273.856ZM753.725 273.856C752.839 273.856 752.061 273.637 751.389 273.2C750.727 272.763 750.263 272.176 749.997 271.44L751.389 270.784C751.623 271.275 751.943 271.664 752.349 271.952C752.765 272.24 753.223 272.384 753.725 272.384C754.151 272.384 754.498 272.288 754.765 272.096C755.031 271.904 755.165 271.643 755.165 271.312C755.165 271.099 755.106 270.928 754.989 270.8C754.871 270.661 754.722 270.549 754.541 270.464C754.37 270.379 754.194 270.315 754.013 270.272L752.653 269.888C751.906 269.675 751.346 269.355 750.973 268.928C750.61 268.491 750.429 267.984 750.429 267.408C750.429 266.885 750.562 266.432 750.829 266.048C751.095 265.653 751.463 265.349 751.933 265.136C752.402 264.923 752.93 264.816 753.517 264.816C754.306 264.816 755.01 265.013 755.629 265.408C756.247 265.792 756.685 266.331 756.941 267.024L755.549 267.68C755.378 267.264 755.106 266.933 754.733 266.688C754.37 266.443 753.959 266.32 753.501 266.32C753.106 266.32 752.791 266.416 752.557 266.608C752.322 266.789 752.205 267.029 752.205 267.328C752.205 267.531 752.258 267.701 752.365 267.84C752.471 267.968 752.61 268.075 752.781 268.16C752.951 268.235 753.127 268.299 753.309 268.352L754.717 268.768C755.431 268.971 755.981 269.291 756.365 269.728C756.749 270.155 756.941 270.667 756.941 271.264C756.941 271.776 756.802 272.229 756.525 272.624C756.258 273.008 755.885 273.312 755.405 273.536C754.925 273.749 754.365 273.856 753.725 273.856ZM759.176 276.016V275.136C759.528 275.051 759.8 274.885 759.992 274.64C760.184 274.405 760.302 274.08 760.344 273.664H759.496V271.584H761.336V272.944C761.336 273.797 761.155 274.485 760.792 275.008C760.43 275.531 759.891 275.867 759.176 276.016ZM766.935 273.664V261.744H774.791V263.424H768.823V266.848H774.471V268.528H768.823V271.984H774.791V273.664H766.935ZM781.009 273.856C780.123 273.856 779.334 273.669 778.641 273.296C777.958 272.923 777.419 272.411 777.025 271.76C776.641 271.109 776.449 270.368 776.449 269.536V261.744H778.337V269.456C778.337 269.979 778.449 270.443 778.673 270.848C778.907 271.253 779.222 271.568 779.617 271.792C780.022 272.016 780.486 272.128 781.009 272.128C781.542 272.128 782.006 272.016 782.401 271.792C782.806 271.568 783.121 271.253 783.345 270.848C783.579 270.443 783.697 269.979 783.697 269.456V261.744H785.569V269.536C785.569 270.368 785.377 271.109 784.993 271.76C784.609 272.411 784.07 272.923 783.377 273.296C782.694 273.669 781.905 273.856 781.009 273.856ZM794.188 273.856C793.484 273.856 792.865 273.728 792.332 273.472C791.799 273.205 791.377 272.837 791.068 272.368C790.769 271.888 790.62 271.333 790.62 270.704C790.62 270.171 790.716 269.707 790.908 269.312C791.1 268.907 791.34 268.565 791.628 268.288C791.916 268 792.204 267.76 792.492 267.568C792.78 267.376 793.02 267.227 793.212 267.12L794.188 266.576C794.508 266.395 794.812 266.203 795.1 266C795.388 265.797 795.623 265.568 795.804 265.312C795.985 265.056 796.076 264.768 796.076 264.448C796.076 264.064 795.948 263.744 795.692 263.488C795.436 263.221 795.116 263.088 794.732 263.088C794.348 263.088 794.028 263.216 793.772 263.472C793.516 263.728 793.388 264.059 793.388 264.464C793.388 264.741 793.452 265.013 793.58 265.28C793.719 265.547 793.879 265.797 794.06 266.032C794.252 266.256 794.439 266.469 794.62 266.672L801.02 273.664H798.764L793.276 267.76C793.02 267.483 792.764 267.189 792.508 266.88C792.263 266.56 792.055 266.208 791.884 265.824C791.724 265.44 791.644 265.013 791.644 264.544C791.644 263.936 791.783 263.408 792.06 262.96C792.348 262.512 792.721 262.165 793.18 261.92C793.649 261.675 794.161 261.552 794.716 261.552C795.281 261.552 795.793 261.68 796.252 261.936C796.711 262.181 797.073 262.523 797.34 262.96C797.617 263.397 797.756 263.893 797.756 264.448C797.756 265.024 797.623 265.52 797.356 265.936C797.089 266.352 796.764 266.704 796.38 266.992C796.007 267.28 795.655 267.525 795.324 267.728L794.348 268.304C794.092 268.453 793.82 268.64 793.532 268.864C793.255 269.077 793.02 269.333 792.828 269.632C792.636 269.92 792.54 270.267 792.54 270.672C792.54 271.173 792.695 271.563 793.004 271.84C793.324 272.117 793.74 272.256 794.252 272.256C794.583 272.256 794.876 272.203 795.132 272.096C795.388 271.989 795.612 271.851 795.804 271.68C796.007 271.509 796.183 271.323 796.332 271.12C796.492 270.907 796.636 270.709 796.764 270.528L798.62 267.808H800.556L798.412 271.136C798.241 271.392 798.039 271.68 797.804 272C797.569 272.309 797.287 272.608 796.956 272.896C796.625 273.173 796.231 273.403 795.772 273.584C795.324 273.765 794.796 273.856 794.188 273.856ZM810.384 273.856C809.498 273.856 808.709 273.669 808.016 273.296C807.333 272.923 806.794 272.411 806.4 271.76C806.016 271.109 805.824 270.368 805.824 269.536V261.744H807.712V269.456C807.712 269.979 807.824 270.443 808.048 270.848C808.282 271.253 808.597 271.568 808.992 271.792C809.397 272.016 809.861 272.128 810.384 272.128C810.917 272.128 811.381 272.016 811.776 271.792C812.181 271.568 812.496 271.253 812.72 270.848C812.954 270.443 813.072 269.979 813.072 269.456V261.744H814.944V269.536C814.944 270.368 814.752 271.109 814.368 271.76C813.984 272.411 813.445 272.923 812.752 273.296C812.069 273.669 811.28 273.856 810.384 273.856ZM817.31 273.664V261.744H818.83L825.518 270.976L824.798 271.088V261.744H826.67V273.664H825.15L818.51 264.368L819.198 264.24V273.664H817.31Z" fill="#797979"/>
</g>
<defs>
<linearGradient id="paint0_linear_2227_320" x1="696.496" y1="189.329" x2="917.462" y2="248.61" gradientUnits="userSpaceOnUse">
<stop stop-color="#FD6C55"/>
<stop offset="1" stop-color="#744DE4"/>
</linearGradient>
</defs>
</svg>
