<svg width="567" height="511" viewBox="0 0 567 511" fill="none" xmlns="http://www.w3.org/2000/svg">
<mask id="mask0_2229_300" style="mask-type:alpha" maskUnits="userSpaceOnUse" x="0" y="0" width="567" height="511">
<rect x="0.203125" y="0.53125" width="566" height="510" fill="#898989"/>
</mask>
<g mask="url(#mask0_2229_300)">
<rect x="-35.1719" y="-93.9141" width="636.75" height="604.444" fill="white"/>
<rect x="65.3594" y="75.2617" width="3.97388" height="3.92488" rx="1.96244" fill="#CFCFCF"/>
<rect x="151.773" y="75.2617" width="3.97388" height="3.92488" rx="1.96244" fill="#CFCFCF"/>
<rect x="238.219" y="75.2617" width="3.97388" height="3.92488" rx="1.96244" fill="#CFCFCF"/>
<rect x="324.641" y="75.2617" width="3.97388" height="3.92488" rx="1.96244" fill="#CFCFCF"/>
<rect x="411.086" y="75.2617" width="3.97388" height="3.92488" rx="1.96244" fill="#CFCFCF"/>
<rect x="497.523" y="75.2617" width="3.97388" height="3.92488" rx="1.96244" fill="#CFCFCF"/>
<rect x="65.3594" y="160.629" width="3.97388" height="3.92488" rx="1.96244" fill="#CFCFCF"/>
<rect x="151.773" y="160.629" width="3.97388" height="3.92488" rx="1.96244" fill="#CFCFCF"/>
<rect x="238.219" y="160.629" width="3.97388" height="3.92488" rx="1.96244" fill="#CFCFCF"/>
<rect x="324.641" y="160.629" width="3.97388" height="3.92488" rx="1.96244" fill="#CFCFCF"/>
<rect x="411.086" y="160.629" width="3.97388" height="3.92488" rx="1.96244" fill="#CFCFCF"/>
<rect x="497.523" y="160.629" width="3.97388" height="3.92488" rx="1.96244" fill="#CFCFCF"/>
<rect x="65.3594" y="245.992" width="3.97388" height="3.92488" rx="1.96244" fill="#CFCFCF"/>
<rect x="151.773" y="245.992" width="3.97388" height="3.92488" rx="1.96244" fill="#CFCFCF"/>
<rect x="238.219" y="245.992" width="3.97388" height="3.92488" rx="1.96244" fill="#CFCFCF"/>
<rect x="324.641" y="245.992" width="3.97388" height="3.92488" rx="1.96244" fill="#CFCFCF"/>
<rect x="411.086" y="245.992" width="3.97388" height="3.92488" rx="1.96244" fill="#CFCFCF"/>
<rect x="497.523" y="245.992" width="3.97388" height="3.92488" rx="1.96244" fill="#CFCFCF"/>
<rect x="65.3594" y="331.355" width="3.97388" height="3.92488" rx="1.96244" fill="#CFCFCF"/>
<rect x="151.773" y="331.355" width="3.97388" height="3.92488" rx="1.96244" fill="#CFCFCF"/>
<rect x="238.219" y="331.355" width="3.97388" height="3.92488" rx="1.96244" fill="#CFCFCF"/>
<rect x="324.641" y="331.355" width="3.97388" height="3.92488" rx="1.96244" fill="#CFCFCF"/>
<rect x="411.086" y="331.355" width="3.97388" height="3.92488" rx="1.96244" fill="#CFCFCF"/>
<rect x="497.523" y="331.355" width="3.97388" height="3.92488" rx="1.96244" fill="#CFCFCF"/>
<rect x="65.3594" y="416.727" width="3.97388" height="3.92488" rx="1.96244" fill="#CFCFCF"/>
<rect x="151.773" y="416.727" width="3.97388" height="3.92488" rx="1.96244" fill="#CFCFCF"/>
<rect x="238.219" y="416.727" width="3.97388" height="3.92488" rx="1.96244" fill="#CFCFCF"/>
<rect x="324.641" y="416.727" width="3.97388" height="3.92488" rx="1.96244" fill="#CFCFCF"/>
<rect x="411.086" y="416.727" width="3.97388" height="3.92488" rx="1.96244" fill="#CFCFCF"/>
<rect x="497.523" y="416.727" width="3.97388" height="3.92488" rx="1.96244" fill="#CFCFCF"/>
<path d="M108.265 191.266V143.586H139.689V150.306H115.817V164.002H138.409V170.722H115.817V184.546H139.689V191.266H108.265ZM141.262 191.266L153.358 173.922L141.262 156.642H149.774L159.694 171.106H155.598L165.518 156.642H174.03L161.87 173.922L173.966 191.266H165.454L155.662 176.738H159.63L149.774 191.266H141.262ZM177.688 204.066V156.642H184.6V163.81L183.768 162.146C185.048 160.183 186.755 158.647 188.888 157.538C191.022 156.428 193.454 155.874 196.184 155.874C199.47 155.874 202.414 156.663 205.016 158.242C207.662 159.82 209.731 161.975 211.224 164.706C212.76 167.436 213.528 170.508 213.528 173.922C213.528 177.335 212.76 180.407 211.224 183.138C209.731 185.868 207.683 188.044 205.08 189.666C202.478 191.244 199.512 192.034 196.184 192.034C193.496 192.034 191.043 191.479 188.824 190.37C186.648 189.26 184.963 187.66 183.768 185.57L184.92 184.226V204.066H177.688ZM195.48 185.314C197.528 185.314 199.342 184.823 200.92 183.842C202.499 182.86 203.736 181.516 204.632 179.81C205.571 178.06 206.04 176.098 206.04 173.922C206.04 171.746 205.571 169.804 204.632 168.098C203.736 166.391 202.499 165.047 200.92 164.066C199.342 163.084 197.528 162.594 195.48 162.594C193.475 162.594 191.662 163.084 190.04 164.066C188.462 165.047 187.203 166.391 186.264 168.098C185.368 169.804 184.92 171.746 184.92 173.922C184.92 176.098 185.368 178.06 186.264 179.81C187.203 181.516 188.462 182.86 190.04 183.842C191.662 184.823 193.475 185.314 195.48 185.314ZM219.283 191.266V142.818H226.515V191.266H219.283ZM250.395 192.034C247.067 192.034 244.016 191.244 241.243 189.666C238.512 188.087 236.336 185.932 234.715 183.202C233.094 180.471 232.283 177.378 232.283 173.922C232.283 170.423 233.094 167.33 234.715 164.642C236.336 161.911 238.512 159.778 241.243 158.242C243.974 156.663 247.024 155.874 250.395 155.874C253.808 155.874 256.859 156.663 259.547 158.242C262.278 159.778 264.432 161.911 266.011 164.642C267.632 167.33 268.443 170.423 268.443 173.922C268.443 177.42 267.632 180.535 266.011 183.266C264.39 185.996 262.214 188.151 259.483 189.73C256.752 191.266 253.723 192.034 250.395 192.034ZM250.395 185.314C252.443 185.314 254.256 184.823 255.835 183.842C257.414 182.86 258.651 181.516 259.547 179.81C260.486 178.06 260.955 176.098 260.955 173.922C260.955 171.746 260.486 169.804 259.547 168.098C258.651 166.391 257.414 165.047 255.835 164.066C254.256 163.084 252.443 162.594 250.395 162.594C248.39 162.594 246.576 163.084 244.955 164.066C243.376 165.047 242.118 166.391 241.179 168.098C240.283 169.804 239.835 171.746 239.835 173.922C239.835 176.098 240.283 178.06 241.179 179.81C242.118 181.516 243.376 182.86 244.955 183.842C246.576 184.823 248.39 185.314 250.395 185.314ZM274.223 191.266V156.642H281.135V163.618L280.495 162.594C281.263 160.332 282.501 158.711 284.207 157.73C285.914 156.706 287.962 156.194 290.351 156.194H292.463V162.786H289.455C287.066 162.786 285.125 163.532 283.631 165.026C282.181 166.476 281.455 168.567 281.455 171.298V191.266H274.223ZM312.387 192.034C308.931 192.034 305.859 191.244 303.171 189.666C300.526 188.044 298.456 185.868 296.963 183.138C295.47 180.364 294.723 177.271 294.723 173.858C294.723 170.359 295.47 167.266 296.963 164.578C298.499 161.89 300.547 159.778 303.107 158.242C305.667 156.663 308.568 155.874 311.811 155.874C314.414 155.874 316.739 156.322 318.787 157.218C320.835 158.114 322.563 159.351 323.971 160.93C325.379 162.466 326.446 164.236 327.171 166.242C327.939 168.247 328.323 170.38 328.323 172.642C328.323 173.196 328.302 173.772 328.259 174.37C328.216 174.967 328.131 175.522 328.003 176.034H300.419V170.274H323.907L320.451 172.898C320.878 170.807 320.728 168.951 320.003 167.33C319.32 165.666 318.254 164.364 316.803 163.426C315.395 162.444 313.731 161.954 311.811 161.954C309.891 161.954 308.184 162.444 306.691 163.426C305.198 164.364 304.046 165.73 303.235 167.522C302.424 169.271 302.104 171.404 302.275 173.922C302.062 176.268 302.382 178.316 303.235 180.066C304.131 181.815 305.368 183.18 306.947 184.162C308.568 185.143 310.403 185.634 312.451 185.634C314.542 185.634 316.312 185.164 317.763 184.226C319.256 183.287 320.43 182.071 321.283 180.578L327.171 183.458C326.488 185.079 325.422 186.551 323.971 187.874C322.563 189.154 320.856 190.178 318.851 190.946C316.888 191.671 314.734 192.034 312.387 192.034ZM347.912 191.266V163.17H341.512V156.642H347.912V154.85C347.912 152.247 348.446 150.071 349.512 148.322C350.579 146.53 352.051 145.164 353.928 144.226C355.848 143.287 358.046 142.818 360.52 142.818C360.99 142.818 361.523 142.86 362.12 142.946C362.718 142.988 363.208 143.052 363.592 143.138V149.41C363.251 149.324 362.867 149.282 362.44 149.282C362.014 149.239 361.672 149.218 361.416 149.218C359.496 149.218 357.96 149.666 356.808 150.562C355.656 151.415 355.08 152.844 355.08 154.85V156.642H363.016V163.17H355.08V191.266H347.912ZM368.166 191.266V156.642H375.078V163.618L374.438 162.594C375.206 160.332 376.443 158.711 378.15 157.73C379.857 156.706 381.905 156.194 384.294 156.194H386.406V162.786H383.398C381.009 162.786 379.067 163.532 377.574 165.026C376.123 166.476 375.398 168.567 375.398 171.298V191.266H368.166ZM406.329 192.034C402.873 192.034 399.801 191.244 397.113 189.666C394.468 188.044 392.399 185.868 390.905 183.138C389.412 180.364 388.665 177.271 388.665 173.858C388.665 170.359 389.412 167.266 390.905 164.578C392.441 161.89 394.489 159.778 397.049 158.242C399.609 156.663 402.511 155.874 405.753 155.874C408.356 155.874 410.681 156.322 412.729 157.218C414.777 158.114 416.505 159.351 417.913 160.93C419.321 162.466 420.388 164.236 421.113 166.242C421.881 168.247 422.265 170.38 422.265 172.642C422.265 173.196 422.244 173.772 422.201 174.37C422.159 174.967 422.073 175.522 421.945 176.034H394.361V170.274H417.849L414.393 172.898C414.82 170.807 414.671 168.951 413.945 167.33C413.263 165.666 412.196 164.364 410.745 163.426C409.337 162.444 407.673 161.954 405.753 161.954C403.833 161.954 402.127 162.444 400.633 163.426C399.14 164.364 397.988 165.73 397.177 167.522C396.367 169.271 396.047 171.404 396.217 173.922C396.004 176.268 396.324 178.316 397.177 180.066C398.073 181.815 399.311 183.18 400.889 184.162C402.511 185.143 404.345 185.634 406.393 185.634C408.484 185.634 410.255 185.164 411.705 184.226C413.199 183.287 414.372 182.071 415.225 180.578L421.113 183.458C420.431 185.079 419.364 186.551 417.913 187.874C416.505 189.154 414.799 190.178 412.793 190.946C410.831 191.671 408.676 192.034 406.329 192.034ZM444.299 192.034C440.843 192.034 437.771 191.244 435.083 189.666C432.438 188.044 430.369 185.868 428.875 183.138C427.382 180.364 426.635 177.271 426.635 173.858C426.635 170.359 427.382 167.266 428.875 164.578C430.411 161.89 432.459 159.778 435.019 158.242C437.579 156.663 440.481 155.874 443.723 155.874C446.326 155.874 448.651 156.322 450.699 157.218C452.747 158.114 454.475 159.351 455.883 160.93C457.291 162.466 458.358 164.236 459.083 166.242C459.851 168.247 460.235 170.38 460.235 172.642C460.235 173.196 460.214 173.772 460.171 174.37C460.129 174.967 460.043 175.522 459.915 176.034H432.331V170.274H455.819L452.363 172.898C452.79 170.807 452.641 168.951 451.915 167.33C451.233 165.666 450.166 164.364 448.715 163.426C447.307 162.444 445.643 161.954 443.723 161.954C441.803 161.954 440.097 162.444 438.603 163.426C437.11 164.364 435.958 165.73 435.147 167.522C434.337 169.271 434.017 171.404 434.187 173.922C433.974 176.268 434.294 178.316 435.147 180.066C436.043 181.815 437.281 183.18 438.859 184.162C440.481 185.143 442.315 185.634 444.363 185.634C446.454 185.634 448.225 185.164 449.675 184.226C451.169 183.287 452.342 182.071 453.195 180.578L459.083 183.458C458.401 185.079 457.334 186.551 455.883 187.874C454.475 189.154 452.769 190.178 450.763 190.946C448.801 191.671 446.646 192.034 444.299 192.034Z" fill="black"/>
<path d="M125.629 259.034C122.258 259.034 119.122 258.415 116.221 257.178C113.362 255.94 110.866 254.234 108.733 252.058C106.642 249.839 105 247.236 103.805 244.25C102.61 241.263 102.013 237.978 102.013 234.394C102.013 230.852 102.589 227.588 103.741 224.602C104.936 221.572 106.6 218.97 108.733 216.794C110.866 214.575 113.362 212.868 116.221 211.674C119.08 210.436 122.216 209.818 125.629 209.818C129 209.818 132.008 210.394 134.653 211.546C137.341 212.698 139.602 214.212 141.437 216.09C143.272 217.924 144.594 219.93 145.405 222.106L138.621 225.306C137.597 222.746 135.954 220.676 133.693 219.098C131.474 217.476 128.786 216.666 125.629 216.666C122.472 216.666 119.677 217.412 117.245 218.906C114.813 220.399 112.914 222.468 111.549 225.114C110.226 227.759 109.565 230.852 109.565 234.394C109.565 237.935 110.226 241.05 111.549 243.738C112.914 246.383 114.813 248.452 117.245 249.946C119.677 251.396 122.472 252.122 125.629 252.122C128.786 252.122 131.474 251.332 133.693 249.754C135.954 248.175 137.597 246.106 138.621 243.546L145.405 246.746C144.594 248.879 143.272 250.884 141.437 252.762C139.602 254.639 137.341 256.154 134.653 257.306C132.008 258.458 129 259.034 125.629 259.034ZM167.266 259.034C163.938 259.034 160.887 258.244 158.114 256.666C155.383 255.087 153.207 252.932 151.586 250.202C149.965 247.471 149.154 244.378 149.154 240.922C149.154 237.423 149.965 234.33 151.586 231.642C153.207 228.911 155.383 226.778 158.114 225.242C160.845 223.663 163.895 222.874 167.266 222.874C170.679 222.874 173.73 223.663 176.418 225.242C179.149 226.778 181.303 228.911 182.882 231.642C184.503 234.33 185.314 237.423 185.314 240.922C185.314 244.42 184.503 247.535 182.882 250.266C181.261 252.996 179.085 255.151 176.354 256.73C173.623 258.266 170.594 259.034 167.266 259.034ZM167.266 252.314C169.314 252.314 171.127 251.823 172.706 250.842C174.285 249.86 175.522 248.516 176.418 246.81C177.357 245.06 177.826 243.098 177.826 240.922C177.826 238.746 177.357 236.804 176.418 235.098C175.522 233.391 174.285 232.047 172.706 231.066C171.127 230.084 169.314 229.594 167.266 229.594C165.261 229.594 163.447 230.084 161.826 231.066C160.247 232.047 158.989 233.391 158.05 235.098C157.154 236.804 156.706 238.746 156.706 240.922C156.706 243.098 157.154 245.06 158.05 246.81C158.989 248.516 160.247 249.86 161.826 250.842C163.447 251.823 165.261 252.314 167.266 252.314ZM203.447 259.034C200.844 259.034 198.561 258.458 196.599 257.306C194.636 256.111 193.1 254.468 191.991 252.378C190.924 250.244 190.391 247.791 190.391 245.018V223.642H197.623V244.378C197.623 245.956 197.943 247.343 198.583 248.538C199.223 249.732 200.119 250.671 201.271 251.354C202.423 251.994 203.745 252.314 205.239 252.314C206.775 252.314 208.119 251.972 209.271 251.29C210.423 250.607 211.319 249.647 211.959 248.41C212.641 247.172 212.983 245.722 212.983 244.058V223.642H220.151V258.266H213.303V251.482L214.071 252.378C213.26 254.511 211.916 256.154 210.039 257.306C208.161 258.458 205.964 259.034 203.447 259.034ZM227.315 258.266V223.642H234.227V230.426L233.395 229.53C234.248 227.354 235.613 225.711 237.491 224.602C239.368 223.45 241.544 222.874 244.019 222.874C246.579 222.874 248.84 223.428 250.803 224.538C252.765 225.647 254.301 227.183 255.411 229.146C256.52 231.108 257.075 233.37 257.075 235.93V258.266H249.907V237.85C249.907 236.1 249.587 234.628 248.947 233.434C248.307 232.196 247.389 231.258 246.195 230.618C245.043 229.935 243.72 229.594 242.227 229.594C240.733 229.594 239.389 229.935 238.195 230.618C237.043 231.258 236.147 232.196 235.507 233.434C234.867 234.671 234.547 236.143 234.547 237.85V258.266H227.315ZM278.511 258.65C274.884 258.65 272.068 257.626 270.063 255.578C268.057 253.53 267.055 250.65 267.055 246.938V230.17H260.975V223.642H261.935C263.556 223.642 264.815 223.172 265.711 222.234C266.607 221.295 267.055 220.015 267.055 218.394V215.706H274.287V223.642H282.159V230.17H274.287V246.618C274.287 247.812 274.479 248.836 274.863 249.69C275.247 250.5 275.865 251.14 276.719 251.61C277.572 252.036 278.681 252.25 280.047 252.25C280.388 252.25 280.772 252.228 281.199 252.186C281.625 252.143 282.031 252.1 282.415 252.058V258.266C281.817 258.351 281.156 258.436 280.431 258.522C279.705 258.607 279.065 258.65 278.511 258.65ZM288.192 258.266V223.642H295.104V230.618L294.464 229.594C295.232 227.332 296.469 225.711 298.176 224.73C299.883 223.706 301.931 223.194 304.32 223.194H306.432V229.786H303.424C301.035 229.786 299.093 230.532 297.6 232.026C296.149 233.476 295.424 235.567 295.424 238.298V258.266H288.192ZM313.172 272.41C312.318 272.41 311.465 272.324 310.612 272.154C309.801 272.026 309.054 271.812 308.372 271.514V265.306C308.884 265.434 309.502 265.54 310.228 265.626C310.953 265.754 311.657 265.818 312.34 265.818C314.345 265.818 315.817 265.37 316.756 264.474C317.737 263.62 318.612 262.276 319.38 260.442L321.684 255.194L321.556 261.274L306.58 223.642H314.324L325.396 252.506H322.772L333.78 223.642H341.588L326.292 262.042C325.481 264.09 324.457 265.882 323.22 267.418C322.025 268.996 320.596 270.212 318.932 271.066C317.31 271.962 315.39 272.41 313.172 272.41ZM355.869 258.266V210.586H386.909V217.306H363.421V231.642H384.349V238.362H363.421V258.266H355.869ZM391.26 258.266V209.818H398.492V258.266H391.26ZM416.035 259.034C413.688 259.034 411.619 258.628 409.827 257.818C408.078 256.964 406.712 255.812 405.731 254.362C404.75 252.868 404.259 251.119 404.259 249.114C404.259 247.236 404.664 245.551 405.475 244.058C406.328 242.564 407.63 241.306 409.379 240.282C411.128 239.258 413.326 238.532 415.971 238.106L428.003 236.122V241.818L417.379 243.674C415.459 244.015 414.051 244.634 413.155 245.53C412.259 246.383 411.811 247.492 411.811 248.858C411.811 250.18 412.302 251.268 413.283 252.122C414.307 252.932 415.608 253.338 417.187 253.338C419.15 253.338 420.856 252.911 422.307 252.058C423.8 251.204 424.952 250.074 425.763 248.666C426.574 247.215 426.979 245.615 426.979 243.866V234.97C426.979 233.263 426.339 231.876 425.059 230.81C423.822 229.7 422.158 229.146 420.067 229.146C418.147 229.146 416.462 229.658 415.011 230.682C413.603 231.663 412.558 232.943 411.875 234.522L405.859 231.514C406.499 229.807 407.544 228.314 408.995 227.034C410.446 225.711 412.131 224.687 414.051 223.962C416.014 223.236 418.083 222.874 420.259 222.874C422.99 222.874 425.4 223.386 427.491 224.41C429.624 225.434 431.267 226.863 432.419 228.698C433.614 230.49 434.211 232.58 434.211 234.97V258.266H427.299V251.994L428.771 252.186C427.96 253.594 426.915 254.81 425.635 255.834C424.398 256.858 422.968 257.647 421.347 258.202C419.768 258.756 417.998 259.034 416.035 259.034ZM458.091 272.346C455.574 272.346 453.248 271.94 451.115 271.13C448.982 270.319 447.147 269.188 445.611 267.738C444.075 266.33 442.923 264.666 442.155 262.746L448.811 259.994C449.408 261.615 450.496 262.959 452.075 264.026C453.696 265.092 455.68 265.626 458.027 265.626C459.862 265.626 461.504 265.263 462.955 264.538C464.406 263.855 465.558 262.831 466.411 261.466C467.264 260.143 467.691 258.543 467.691 256.666V248.858L468.971 250.33C467.776 252.548 466.112 254.234 463.979 255.386C461.888 256.538 459.52 257.114 456.875 257.114C453.675 257.114 450.795 256.367 448.235 254.874C445.675 253.38 443.648 251.332 442.155 248.73C440.704 246.127 439.979 243.204 439.979 239.962C439.979 236.676 440.704 233.754 442.155 231.194C443.648 228.634 445.654 226.607 448.171 225.114C450.688 223.62 453.568 222.874 456.811 222.874C459.456 222.874 461.803 223.45 463.851 224.602C465.942 225.711 467.648 227.332 468.971 229.466L468.011 231.258V223.642H474.859V256.666C474.859 259.652 474.134 262.319 472.683 264.666C471.275 267.055 469.312 268.932 466.795 270.298C464.278 271.663 461.376 272.346 458.091 272.346ZM457.707 250.394C459.627 250.394 461.334 249.946 462.827 249.05C464.32 248.111 465.494 246.874 466.347 245.338C467.243 243.759 467.691 241.988 467.691 240.026C467.691 238.063 467.243 236.292 466.347 234.714C465.451 233.135 464.256 231.898 462.763 231.002C461.27 230.063 459.584 229.594 457.707 229.594C455.744 229.594 453.995 230.063 452.459 231.002C450.923 231.898 449.707 233.135 448.811 234.714C447.958 236.25 447.531 238.02 447.531 240.026C447.531 241.946 447.958 243.695 448.811 245.274C449.707 246.852 450.923 248.111 452.459 249.05C453.995 249.946 455.744 250.394 457.707 250.394ZM167.471 325.266V277.586H175.023V325.266H167.471ZM182.925 325.266V290.642H189.837V298.13L188.941 296.978C189.666 294.631 190.989 292.86 192.909 291.666C194.829 290.471 197.026 289.874 199.501 289.874C202.274 289.874 204.727 290.62 206.861 292.114C209.037 293.564 210.487 295.506 211.213 297.938L209.165 298.13C210.189 295.356 211.746 293.287 213.837 291.922C215.97 290.556 218.402 289.874 221.133 289.874C223.522 289.874 225.677 290.428 227.597 291.538C229.559 292.647 231.117 294.183 232.269 296.146C233.421 298.108 233.997 300.348 233.997 302.866V325.266H226.765V304.85C226.765 303.1 226.445 301.628 225.805 300.434C225.207 299.196 224.354 298.258 223.245 297.618C222.178 296.935 220.919 296.594 219.469 296.594C218.018 296.594 216.738 296.935 215.629 297.618C214.519 298.258 213.645 299.196 213.005 300.434C212.365 301.671 212.045 303.143 212.045 304.85V325.266H204.877V304.85C204.877 303.1 204.557 301.628 203.917 300.434C203.319 299.196 202.466 298.258 201.357 297.618C200.29 296.935 199.01 296.594 197.517 296.594C196.066 296.594 194.786 296.935 193.677 297.618C192.567 298.258 191.693 299.196 191.053 300.434C190.455 301.671 190.157 303.143 190.157 304.85V325.266H182.925ZM250.825 326.034C248.478 326.034 246.409 325.628 244.617 324.818C242.868 323.964 241.502 322.812 240.521 321.362C239.54 319.868 239.049 318.119 239.049 316.114C239.049 314.236 239.454 312.551 240.265 311.058C241.118 309.564 242.42 308.306 244.169 307.282C245.918 306.258 248.116 305.532 250.761 305.106L262.793 303.122V308.818L252.169 310.674C250.249 311.015 248.841 311.634 247.945 312.53C247.049 313.383 246.601 314.492 246.601 315.858C246.601 317.18 247.092 318.268 248.073 319.122C249.097 319.932 250.398 320.338 251.977 320.338C253.94 320.338 255.646 319.911 257.097 319.058C258.59 318.204 259.742 317.074 260.553 315.666C261.364 314.215 261.769 312.615 261.769 310.866V301.97C261.769 300.263 261.129 298.876 259.849 297.81C258.612 296.7 256.948 296.146 254.857 296.146C252.937 296.146 251.252 296.658 249.801 297.682C248.393 298.663 247.348 299.943 246.665 301.522L240.649 298.514C241.289 296.807 242.334 295.314 243.785 294.034C245.236 292.711 246.921 291.687 248.841 290.962C250.804 290.236 252.873 289.874 255.049 289.874C257.78 289.874 260.19 290.386 262.281 291.41C264.414 292.434 266.057 293.863 267.209 295.698C268.404 297.49 269.001 299.58 269.001 301.97V325.266H262.089V318.994L263.561 319.186C262.75 320.594 261.705 321.81 260.425 322.834C259.188 323.858 257.758 324.647 256.137 325.202C254.558 325.756 252.788 326.034 250.825 326.034ZM292.881 339.346C290.364 339.346 288.038 338.94 285.905 338.13C283.772 337.319 281.937 336.188 280.401 334.738C278.865 333.33 277.713 331.666 276.945 329.746L283.601 326.994C284.198 328.615 285.286 329.959 286.865 331.026C288.486 332.092 290.47 332.626 292.817 332.626C294.652 332.626 296.294 332.263 297.745 331.538C299.196 330.855 300.348 329.831 301.201 328.466C302.054 327.143 302.481 325.543 302.481 323.666V315.858L303.761 317.33C302.566 319.548 300.902 321.234 298.769 322.386C296.678 323.538 294.31 324.114 291.665 324.114C288.465 324.114 285.585 323.367 283.025 321.874C280.465 320.38 278.438 318.332 276.945 315.73C275.494 313.127 274.769 310.204 274.769 306.962C274.769 303.676 275.494 300.754 276.945 298.194C278.438 295.634 280.444 293.607 282.961 292.114C285.478 290.62 288.358 289.874 291.601 289.874C294.246 289.874 296.593 290.45 298.641 291.602C300.732 292.711 302.438 294.332 303.761 296.466L302.801 298.258V290.642H309.649V323.666C309.649 326.652 308.924 329.319 307.473 331.666C306.065 334.055 304.102 335.932 301.585 337.298C299.068 338.663 296.166 339.346 292.881 339.346ZM292.497 317.394C294.417 317.394 296.124 316.946 297.617 316.05C299.11 315.111 300.284 313.874 301.137 312.338C302.033 310.759 302.481 308.988 302.481 307.026C302.481 305.063 302.033 303.292 301.137 301.714C300.241 300.135 299.046 298.898 297.553 298.002C296.06 297.063 294.374 296.594 292.497 296.594C290.534 296.594 288.785 297.063 287.249 298.002C285.713 298.898 284.497 300.135 283.601 301.714C282.748 303.25 282.321 305.02 282.321 307.026C282.321 308.946 282.748 310.695 283.601 312.274C284.497 313.852 285.713 315.111 287.249 316.05C288.785 316.946 290.534 317.394 292.497 317.394ZM333.091 326.034C329.635 326.034 326.563 325.244 323.875 323.666C321.229 322.044 319.16 319.868 317.667 317.138C316.173 314.364 315.427 311.271 315.427 307.858C315.427 304.359 316.173 301.266 317.667 298.578C319.203 295.89 321.251 293.778 323.811 292.242C326.371 290.663 329.272 289.874 332.515 289.874C335.117 289.874 337.443 290.322 339.491 291.218C341.539 292.114 343.267 293.351 344.675 294.93C346.083 296.466 347.149 298.236 347.875 300.242C348.643 302.247 349.027 304.38 349.027 306.642C349.027 307.196 349.005 307.772 348.963 308.37C348.92 308.967 348.835 309.522 348.707 310.034H321.123V304.274H344.611L341.155 306.898C341.581 304.807 341.432 302.951 340.707 301.33C340.024 299.666 338.957 298.364 337.507 297.426C336.099 296.444 334.435 295.954 332.515 295.954C330.595 295.954 328.888 296.444 327.395 297.426C325.901 298.364 324.749 299.73 323.939 301.522C323.128 303.271 322.808 305.404 322.979 307.922C322.765 310.268 323.085 312.316 323.939 314.066C324.835 315.815 326.072 317.18 327.651 318.162C329.272 319.143 331.107 319.634 333.155 319.634C335.245 319.634 337.016 319.164 338.467 318.226C339.96 317.287 341.133 316.071 341.987 314.578L347.875 317.458C347.192 319.079 346.125 320.551 344.675 321.874C343.267 323.154 341.56 324.178 339.555 324.946C337.592 325.671 335.437 326.034 333.091 326.034ZM367.605 326.034C364.063 326.034 360.949 325.159 358.261 323.41C355.615 321.66 353.759 319.314 352.693 316.37L358.261 313.746C359.199 315.708 360.479 317.266 362.101 318.418C363.765 319.57 365.599 320.146 367.605 320.146C369.311 320.146 370.698 319.762 371.765 318.994C372.831 318.226 373.365 317.18 373.365 315.858C373.365 315.004 373.13 314.322 372.661 313.81C372.191 313.255 371.594 312.807 370.869 312.466C370.186 312.124 369.482 311.868 368.757 311.698L363.317 310.162C360.33 309.308 358.09 308.028 356.597 306.322C355.146 304.572 354.421 302.546 354.421 300.242C354.421 298.151 354.954 296.338 356.021 294.802C357.087 293.223 358.559 292.007 360.437 291.154C362.314 290.3 364.426 289.874 366.773 289.874C369.93 289.874 372.746 290.663 375.221 292.242C377.695 293.778 379.445 295.932 380.469 298.706L374.901 301.33C374.218 299.666 373.13 298.343 371.637 297.362C370.186 296.38 368.543 295.89 366.709 295.89C365.13 295.89 363.871 296.274 362.933 297.042C361.994 297.767 361.525 298.727 361.525 299.922C361.525 300.732 361.738 301.415 362.165 301.97C362.591 302.482 363.146 302.908 363.829 303.25C364.511 303.548 365.215 303.804 365.941 304.018L371.573 305.682C374.431 306.492 376.629 307.772 378.165 309.522C379.701 311.228 380.469 313.276 380.469 315.666C380.469 317.714 379.914 319.527 378.805 321.106C377.738 322.642 376.245 323.858 374.325 324.754C372.405 325.607 370.165 326.034 367.605 326.034ZM389.795 311.058L389.283 277.586H396.643L396.195 311.058H389.795ZM389.283 325.266V316.946H396.643V325.266H389.283Z" fill="url(#paint0_linear_2229_300)"/>
<path d="M96.4351 376.797V364.877H104.195V366.557H98.3231V370.141H103.555V371.821H98.3231V376.797H96.4351ZM105.118 376.797V368.141H106.847V369.885L106.687 369.629C106.879 369.064 107.188 368.658 107.615 368.413C108.041 368.157 108.553 368.029 109.151 368.029H109.679V369.677H108.927C108.329 369.677 107.844 369.864 107.471 370.237C107.108 370.6 106.927 371.122 106.927 371.805V376.797H105.118ZM114.979 376.989C114.115 376.989 113.347 376.792 112.675 376.397C112.014 375.992 111.497 375.448 111.123 374.765C110.75 374.072 110.563 373.298 110.563 372.445C110.563 371.57 110.75 370.797 111.123 370.125C111.507 369.453 112.019 368.925 112.659 368.541C113.299 368.146 114.025 367.949 114.835 367.949C115.486 367.949 116.067 368.061 116.579 368.285C117.091 368.509 117.523 368.818 117.875 369.213C118.227 369.597 118.494 370.04 118.675 370.541C118.867 371.042 118.963 371.576 118.963 372.141C118.963 372.28 118.958 372.424 118.947 372.573C118.937 372.722 118.915 372.861 118.883 372.989H111.987V371.549H117.859L116.995 372.205C117.102 371.682 117.065 371.218 116.883 370.813C116.713 370.397 116.446 370.072 116.083 369.837C115.731 369.592 115.315 369.469 114.835 369.469C114.355 369.469 113.929 369.592 113.555 369.837C113.182 370.072 112.894 370.413 112.691 370.861C112.489 371.298 112.409 371.832 112.451 372.461C112.398 373.048 112.478 373.56 112.691 373.997C112.915 374.434 113.225 374.776 113.619 375.021C114.025 375.266 114.483 375.389 114.995 375.389C115.518 375.389 115.961 375.272 116.323 375.037C116.697 374.802 116.99 374.498 117.203 374.125L118.675 374.845C118.505 375.25 118.238 375.618 117.875 375.949C117.523 376.269 117.097 376.525 116.595 376.717C116.105 376.898 115.566 376.989 114.979 376.989ZM124.792 376.989C123.928 376.989 123.16 376.792 122.488 376.397C121.827 375.992 121.309 375.448 120.936 374.765C120.563 374.072 120.376 373.298 120.376 372.445C120.376 371.57 120.563 370.797 120.936 370.125C121.32 369.453 121.832 368.925 122.472 368.541C123.112 368.146 123.837 367.949 124.648 367.949C125.299 367.949 125.88 368.061 126.392 368.285C126.904 368.509 127.336 368.818 127.688 369.213C128.04 369.597 128.307 370.04 128.488 370.541C128.68 371.042 128.776 371.576 128.776 372.141C128.776 372.28 128.771 372.424 128.76 372.573C128.749 372.722 128.728 372.861 128.696 372.989H121.8V371.549H127.672L126.808 372.205C126.915 371.682 126.877 371.218 126.696 370.813C126.525 370.397 126.259 370.072 125.896 369.837C125.544 369.592 125.128 369.469 124.648 369.469C124.168 369.469 123.741 369.592 123.368 369.837C122.995 370.072 122.707 370.413 122.504 370.861C122.301 371.298 122.221 371.832 122.264 372.461C122.211 373.048 122.291 373.56 122.504 373.997C122.728 374.434 123.037 374.776 123.432 375.021C123.837 375.266 124.296 375.389 124.808 375.389C125.331 375.389 125.773 375.272 126.136 375.037C126.509 374.802 126.803 374.498 127.016 374.125L128.488 374.845C128.317 375.25 128.051 375.618 127.688 375.949C127.336 376.269 126.909 376.525 126.408 376.717C125.917 376.898 125.379 376.989 124.792 376.989Z" fill="#797979"/>
<path d="M144.167 371.797C144.555 371.797 144.901 371.71 145.206 371.537C145.51 371.357 145.753 371.115 145.933 370.81C146.113 370.505 146.203 370.155 146.203 369.761C146.203 369.393 146.117 369.064 145.943 368.773C145.763 368.476 145.521 368.24 145.216 368.067C144.911 367.887 144.562 367.797 144.167 367.797C143.793 367.797 143.46 367.887 143.169 368.067C142.878 368.24 142.646 368.476 142.473 368.773C142.3 369.071 142.21 369.4 142.203 369.761C142.203 370.155 142.29 370.505 142.463 370.81C142.636 371.115 142.872 371.357 143.169 371.537C143.467 371.71 143.8 371.797 144.167 371.797Z" fill="#797979"/>
<path d="M159.003 376.797V375.437L162.267 371.949C162.907 371.266 163.408 370.717 163.771 370.301C164.144 369.874 164.411 369.501 164.571 369.181C164.742 368.861 164.827 368.525 164.827 368.173C164.827 367.597 164.651 367.154 164.299 366.845C163.947 366.525 163.494 366.365 162.939 366.365C162.363 366.365 161.867 366.53 161.451 366.861C161.035 367.181 160.747 367.65 160.587 368.269L158.923 367.789C159.051 367.16 159.307 366.616 159.691 366.157C160.075 365.688 160.544 365.325 161.099 365.069C161.664 364.813 162.272 364.685 162.923 364.685C163.68 364.685 164.342 364.829 164.907 365.117C165.472 365.394 165.91 365.784 166.219 366.285C166.539 366.786 166.699 367.368 166.699 368.029C166.699 368.466 166.614 368.893 166.443 369.309C166.283 369.714 166.032 370.146 165.691 370.605C165.35 371.053 164.912 371.56 164.379 372.125L161.499 375.197H166.923V376.797H159.003ZM172.55 376.989C171.92 376.989 171.328 376.877 170.774 376.653C170.219 376.418 169.739 376.093 169.334 375.677C168.928 375.261 168.64 374.76 168.47 374.173L170.054 373.565C170.256 374.13 170.587 374.562 171.046 374.861C171.504 375.16 172.006 375.309 172.55 375.309C172.998 375.309 173.392 375.208 173.734 375.005C174.075 374.802 174.342 374.525 174.534 374.173C174.736 373.821 174.838 373.421 174.838 372.973C174.838 372.514 174.736 372.114 174.534 371.773C174.342 371.421 174.075 371.149 173.734 370.957C173.392 370.754 172.998 370.653 172.55 370.653C172.102 370.653 171.691 370.754 171.318 370.957C170.944 371.16 170.672 371.432 170.502 371.773L168.982 371.437L169.91 364.877H176.262V366.477H170.646L171.366 365.693L170.678 370.717L170.086 370.317C170.406 369.869 170.795 369.544 171.254 369.341C171.712 369.138 172.235 369.037 172.822 369.037C173.6 369.037 174.278 369.213 174.854 369.565C175.44 369.906 175.894 370.376 176.214 370.973C176.544 371.56 176.71 372.226 176.71 372.973C176.71 373.73 176.528 374.413 176.166 375.021C175.803 375.629 175.307 376.109 174.678 376.461C174.059 376.813 173.35 376.989 172.55 376.989ZM183.913 376.797V374.109H178.233V372.541L183.833 364.877H185.705V372.541H187.353V374.109H185.705V376.797H183.913ZM179.625 373.229L179.321 372.541H183.913V366.381L184.425 366.541L179.625 373.229ZM195.102 376.797V373.581H191.886V371.981H195.102V368.797H196.702V371.981H199.886V373.581H196.702V376.797H195.102ZM208.597 376.989C207.967 376.989 207.375 376.877 206.821 376.653C206.266 376.418 205.786 376.093 205.381 375.677C204.975 375.261 204.687 374.76 204.517 374.173L206.101 373.565C206.303 374.13 206.634 374.562 207.093 374.861C207.551 375.16 208.053 375.309 208.597 375.309C209.045 375.309 209.439 375.208 209.781 375.005C210.122 374.802 210.389 374.525 210.581 374.173C210.783 373.821 210.885 373.421 210.885 372.973C210.885 372.514 210.783 372.114 210.581 371.773C210.389 371.421 210.122 371.149 209.781 370.957C209.439 370.754 209.045 370.653 208.597 370.653C208.149 370.653 207.738 370.754 207.365 370.957C206.991 371.16 206.719 371.432 206.549 371.773L205.029 371.437L205.957 364.877H212.309V366.477H206.693L207.413 365.693L206.725 370.717L206.133 370.317C206.453 369.869 206.842 369.544 207.301 369.341C207.759 369.138 208.282 369.037 208.869 369.037C209.647 369.037 210.325 369.213 210.901 369.565C211.487 369.906 211.941 370.376 212.26 370.973C212.591 371.56 212.757 372.226 212.757 372.973C212.757 373.73 212.575 374.413 212.213 375.021C211.85 375.629 211.354 376.109 210.725 376.461C210.106 376.813 209.397 376.989 208.597 376.989ZM219.4 376.989C218.451 376.989 217.619 376.733 216.904 376.221C216.19 375.698 215.63 374.978 215.224 374.061C214.83 373.133 214.632 372.056 214.632 370.829C214.632 369.592 214.83 368.514 215.224 367.597C215.63 366.68 216.184 365.965 216.888 365.453C217.603 364.941 218.435 364.685 219.384 364.685C220.334 364.685 221.16 364.941 221.864 365.453C222.579 365.965 223.134 366.685 223.528 367.613C223.934 368.53 224.136 369.602 224.136 370.829C224.136 372.056 223.939 373.133 223.544 374.061C223.15 374.978 222.595 375.698 221.88 376.221C221.176 376.733 220.35 376.989 219.4 376.989ZM219.4 375.261C219.987 375.261 220.494 375.08 220.92 374.717C221.347 374.354 221.678 373.842 221.912 373.181C222.147 372.52 222.264 371.736 222.264 370.829C222.264 369.922 222.147 369.138 221.912 368.477C221.678 367.816 221.347 367.304 220.92 366.941C220.494 366.578 219.982 366.397 219.384 366.397C218.798 366.397 218.291 366.578 217.864 366.941C217.438 367.304 217.107 367.816 216.872 368.477C216.638 369.138 216.52 369.922 216.52 370.829C216.52 371.725 216.638 372.509 216.872 373.181C217.107 373.842 217.438 374.354 217.864 374.717C218.302 375.08 218.814 375.261 219.4 375.261ZM229.938 376.797V369.773H228.338V368.141H229.938V367.693C229.938 367.042 230.072 366.498 230.338 366.061C230.605 365.613 230.973 365.272 231.442 365.037C231.922 364.802 232.472 364.685 233.09 364.685C233.208 364.685 233.341 364.696 233.49 364.717C233.64 364.728 233.762 364.744 233.858 364.765V366.333C233.773 366.312 233.677 366.301 233.57 366.301C233.464 366.29 233.378 366.285 233.314 366.285C232.834 366.285 232.45 366.397 232.162 366.621C231.874 366.834 231.73 367.192 231.73 367.693V368.141H235.874V369.773H231.73V376.797H229.938ZM235.394 376.797V364.685H237.186V376.797H235.394ZM241.898 376.989C241.311 376.989 240.794 376.888 240.346 376.685C239.909 376.472 239.567 376.184 239.322 375.821C239.077 375.448 238.954 375.01 238.954 374.509C238.954 374.04 239.055 373.618 239.258 373.245C239.471 372.872 239.797 372.557 240.234 372.301C240.671 372.045 241.221 371.864 241.882 371.757L244.89 371.261V372.685L242.234 373.149C241.754 373.234 241.402 373.389 241.178 373.613C240.954 373.826 240.842 374.104 240.842 374.445C240.842 374.776 240.965 375.048 241.21 375.261C241.466 375.464 241.791 375.565 242.186 375.565C242.677 375.565 243.103 375.458 243.466 375.245C243.839 375.032 244.127 374.749 244.33 374.397C244.533 374.034 244.634 373.634 244.634 373.197V370.973C244.634 370.546 244.474 370.2 244.154 369.933C243.845 369.656 243.429 369.517 242.906 369.517C242.426 369.517 242.005 369.645 241.642 369.901C241.29 370.146 241.029 370.466 240.858 370.861L239.354 370.109C239.514 369.682 239.775 369.309 240.138 368.989C240.501 368.658 240.922 368.402 241.402 368.221C241.893 368.04 242.41 367.949 242.954 367.949C243.637 367.949 244.239 368.077 244.762 368.333C245.295 368.589 245.706 368.946 245.994 369.405C246.293 369.853 246.442 370.376 246.442 370.973V376.797H244.714V375.229L245.082 375.277C244.879 375.629 244.618 375.933 244.298 376.189C243.989 376.445 243.631 376.642 243.226 376.781C242.831 376.92 242.389 376.989 241.898 376.989ZM252.732 380.317C252.103 380.317 251.521 380.216 250.988 380.013C250.455 379.81 249.996 379.528 249.612 379.165C249.228 378.813 248.94 378.397 248.748 377.917L250.412 377.229C250.561 377.634 250.833 377.97 251.228 378.237C251.633 378.504 252.129 378.637 252.716 378.637C253.175 378.637 253.585 378.546 253.948 378.365C254.311 378.194 254.599 377.938 254.812 377.597C255.025 377.266 255.132 376.866 255.132 376.397V374.445L255.452 374.813C255.153 375.368 254.737 375.789 254.204 376.077C253.681 376.365 253.089 376.509 252.428 376.509C251.628 376.509 250.908 376.322 250.268 375.949C249.628 375.576 249.121 375.064 248.748 374.413C248.385 373.762 248.204 373.032 248.204 372.221C248.204 371.4 248.385 370.669 248.748 370.029C249.121 369.389 249.623 368.882 250.252 368.509C250.881 368.136 251.601 367.949 252.412 367.949C253.073 367.949 253.66 368.093 254.172 368.381C254.695 368.658 255.121 369.064 255.452 369.597L255.212 370.045V368.141H256.924V376.397C256.924 377.144 256.743 377.81 256.38 378.397C256.028 378.994 255.537 379.464 254.908 379.805C254.279 380.146 253.553 380.317 252.732 380.317ZM252.636 374.829C253.116 374.829 253.543 374.717 253.916 374.493C254.289 374.258 254.583 373.949 254.796 373.565C255.02 373.17 255.132 372.728 255.132 372.237C255.132 371.746 255.02 371.304 254.796 370.909C254.572 370.514 254.273 370.205 253.9 369.981C253.527 369.746 253.105 369.629 252.636 369.629C252.145 369.629 251.708 369.746 251.324 369.981C250.94 370.205 250.636 370.514 250.412 370.909C250.199 371.293 250.092 371.736 250.092 372.237C250.092 372.717 250.199 373.154 250.412 373.549C250.636 373.944 250.94 374.258 251.324 374.493C251.708 374.717 252.145 374.829 252.636 374.829ZM262.24 376.989C261.355 376.989 260.576 376.77 259.904 376.333C259.243 375.896 258.779 375.309 258.512 374.573L259.904 373.917C260.139 374.408 260.459 374.797 260.864 375.085C261.28 375.373 261.739 375.517 262.24 375.517C262.667 375.517 263.014 375.421 263.28 375.229C263.547 375.037 263.68 374.776 263.68 374.445C263.68 374.232 263.622 374.061 263.504 373.933C263.387 373.794 263.238 373.682 263.056 373.597C262.886 373.512 262.71 373.448 262.528 373.405L261.168 373.021C260.422 372.808 259.862 372.488 259.488 372.061C259.126 371.624 258.944 371.117 258.944 370.541C258.944 370.018 259.078 369.565 259.344 369.181C259.611 368.786 259.979 368.482 260.448 368.269C260.918 368.056 261.446 367.949 262.032 367.949C262.822 367.949 263.526 368.146 264.144 368.541C264.763 368.925 265.2 369.464 265.456 370.157L264.064 370.813C263.894 370.397 263.622 370.066 263.248 369.821C262.886 369.576 262.475 369.453 262.016 369.453C261.622 369.453 261.307 369.549 261.072 369.741C260.838 369.922 260.72 370.162 260.72 370.461C260.72 370.664 260.774 370.834 260.88 370.973C260.987 371.101 261.126 371.208 261.296 371.293C261.467 371.368 261.643 371.432 261.824 371.485L263.232 371.901C263.947 372.104 264.496 372.424 264.88 372.861C265.264 373.288 265.456 373.8 265.456 374.397C265.456 374.909 265.318 375.362 265.04 375.757C264.774 376.141 264.4 376.445 263.92 376.669C263.44 376.882 262.88 376.989 262.24 376.989ZM274.201 376.989C273.369 376.989 272.606 376.792 271.913 376.397C271.23 376.002 270.686 375.464 270.281 374.781C269.875 374.098 269.673 373.325 269.673 372.461C269.673 371.586 269.875 370.813 270.281 370.141C270.686 369.458 271.23 368.925 271.913 368.541C272.595 368.146 273.358 367.949 274.201 367.949C275.054 367.949 275.817 368.146 276.489 368.541C277.171 368.925 277.71 369.458 278.105 370.141C278.51 370.813 278.713 371.586 278.713 372.461C278.713 373.336 278.51 374.114 278.105 374.797C277.699 375.48 277.155 376.018 276.473 376.413C275.79 376.797 275.033 376.989 274.201 376.989ZM274.201 375.309C274.713 375.309 275.166 375.186 275.561 374.941C275.955 374.696 276.265 374.36 276.489 373.933C276.723 373.496 276.841 373.005 276.841 372.461C276.841 371.917 276.723 371.432 276.489 371.005C276.265 370.578 275.955 370.242 275.561 369.997C275.166 369.752 274.713 369.629 274.201 369.629C273.699 369.629 273.246 369.752 272.841 369.997C272.446 370.242 272.131 370.578 271.897 371.005C271.673 371.432 271.561 371.917 271.561 372.461C271.561 373.005 271.673 373.496 271.897 373.933C272.131 374.36 272.446 374.696 272.841 374.941C273.246 375.186 273.699 375.309 274.201 375.309ZM281.22 376.797V369.773H279.62V368.141H281.22V367.693C281.22 367.042 281.353 366.498 281.62 366.061C281.886 365.613 282.254 365.272 282.724 365.037C283.204 364.802 283.753 364.685 284.372 364.685C284.489 364.685 284.622 364.696 284.772 364.717C284.921 364.728 285.044 364.744 285.14 364.765V366.333C285.054 366.312 284.958 366.301 284.852 366.301C284.745 366.29 284.66 366.285 284.596 366.285C284.116 366.285 283.732 366.397 283.444 366.621C283.156 366.834 283.012 367.192 283.012 367.693V368.141H284.996V369.773H283.012V376.797H281.22ZM293.222 376.893C292.315 376.893 291.611 376.637 291.11 376.125C290.609 375.613 290.358 374.893 290.358 373.965V369.773H288.838V368.141H289.078C289.483 368.141 289.798 368.024 290.022 367.789C290.246 367.554 290.358 367.234 290.358 366.829V366.157H292.166V368.141H294.134V369.773H292.166V373.885C292.166 374.184 292.214 374.44 292.31 374.653C292.406 374.856 292.561 375.016 292.774 375.133C292.987 375.24 293.265 375.293 293.606 375.293C293.691 375.293 293.787 375.288 293.894 375.277C294.001 375.266 294.102 375.256 294.198 375.245V376.797C294.049 376.818 293.883 376.84 293.702 376.861C293.521 376.882 293.361 376.893 293.222 376.893ZM295.962 376.797V364.685H297.77V369.837L297.482 369.613C297.696 369.069 298.037 368.658 298.506 368.381C298.976 368.093 299.52 367.949 300.138 367.949C300.778 367.949 301.344 368.088 301.834 368.365C302.325 368.642 302.709 369.026 302.986 369.517C303.264 370.008 303.402 370.568 303.402 371.197V376.797H301.61V371.693C301.61 371.256 301.525 370.888 301.354 370.589C301.194 370.28 300.97 370.045 300.682 369.885C300.394 369.714 300.064 369.629 299.69 369.629C299.328 369.629 298.997 369.714 298.698 369.885C298.41 370.045 298.181 370.28 298.01 370.589C297.85 370.898 297.77 371.266 297.77 371.693V376.797H295.962ZM309.401 376.989C308.537 376.989 307.769 376.792 307.097 376.397C306.436 375.992 305.919 375.448 305.545 374.765C305.172 374.072 304.985 373.298 304.985 372.445C304.985 371.57 305.172 370.797 305.545 370.125C305.929 369.453 306.441 368.925 307.081 368.541C307.721 368.146 308.447 367.949 309.257 367.949C309.908 367.949 310.489 368.061 311.001 368.285C311.513 368.509 311.945 368.818 312.297 369.213C312.649 369.597 312.916 370.04 313.097 370.541C313.289 371.042 313.385 371.576 313.385 372.141C313.385 372.28 313.38 372.424 313.369 372.573C313.359 372.722 313.337 372.861 313.305 372.989H306.409V371.549H312.281L311.417 372.205C311.524 371.682 311.487 371.218 311.305 370.813C311.135 370.397 310.868 370.072 310.505 369.837C310.153 369.592 309.737 369.469 309.257 369.469C308.777 369.469 308.351 369.592 307.977 369.837C307.604 370.072 307.316 370.413 307.113 370.861C306.911 371.298 306.831 371.832 306.873 372.461C306.82 373.048 306.9 373.56 307.113 373.997C307.337 374.434 307.647 374.776 308.041 375.021C308.447 375.266 308.905 375.389 309.417 375.389C309.94 375.389 310.383 375.272 310.745 375.037C311.119 374.802 311.412 374.498 311.625 374.125L313.097 374.845C312.927 375.25 312.66 375.618 312.297 375.949C311.945 376.269 311.519 376.525 311.017 376.717C310.527 376.898 309.988 376.989 309.401 376.989ZM322.587 376.989C321.701 376.989 320.912 376.802 320.219 376.429C319.536 376.056 318.997 375.544 318.603 374.893C318.219 374.242 318.027 373.501 318.027 372.669V364.877H319.915V372.589C319.915 373.112 320.027 373.576 320.251 373.981C320.485 374.386 320.8 374.701 321.195 374.925C321.6 375.149 322.064 375.261 322.587 375.261C323.12 375.261 323.584 375.149 323.979 374.925C324.384 374.701 324.699 374.386 324.923 373.981C325.157 373.576 325.275 373.112 325.275 372.589V364.877H327.147V372.669C327.147 373.501 326.955 374.242 326.571 374.893C326.187 375.544 325.648 376.056 324.955 376.429C324.272 376.802 323.483 376.989 322.587 376.989ZM330.137 376.797V374.717H331.977V376.797H330.137ZM339.236 376.989C338.489 376.989 337.796 376.85 337.156 376.573C336.516 376.285 335.972 375.896 335.524 375.405C335.076 374.914 334.745 374.349 334.532 373.709L336.132 373.037C336.42 373.773 336.841 374.338 337.396 374.733C337.951 375.128 338.591 375.325 339.316 375.325C339.743 375.325 340.116 375.261 340.436 375.133C340.756 374.994 341.001 374.802 341.172 374.557C341.353 374.312 341.444 374.029 341.444 373.709C341.444 373.272 341.321 372.925 341.076 372.669C340.831 372.413 340.468 372.21 339.988 372.061L337.748 371.357C336.852 371.08 336.169 370.658 335.7 370.093C335.231 369.517 334.996 368.845 334.996 368.077C334.996 367.405 335.161 366.818 335.492 366.317C335.823 365.805 336.276 365.405 336.852 365.117C337.439 364.829 338.105 364.685 338.852 364.685C339.567 364.685 340.217 364.813 340.804 365.069C341.391 365.314 341.892 365.656 342.308 366.093C342.735 366.53 343.044 367.037 343.236 367.613L341.668 368.301C341.433 367.672 341.065 367.186 340.564 366.845C340.073 366.504 339.503 366.333 338.852 366.333C338.457 366.333 338.111 366.402 337.812 366.541C337.513 366.669 337.279 366.861 337.108 367.117C336.948 367.362 336.868 367.65 336.868 367.981C336.868 368.365 336.991 368.706 337.236 369.005C337.481 369.304 337.855 369.528 338.356 369.677L340.436 370.333C341.385 370.621 342.1 371.037 342.58 371.581C343.06 372.114 343.3 372.781 343.3 373.581C343.3 374.242 343.124 374.829 342.772 375.341C342.431 375.853 341.956 376.258 341.348 376.557C340.74 376.845 340.036 376.989 339.236 376.989ZM346.044 376.797V374.717H347.884V376.797H346.044ZM356.787 376.989C355.902 376.989 355.123 376.77 354.451 376.333C353.79 375.896 353.326 375.309 353.059 374.573L354.451 373.917C354.686 374.408 355.006 374.797 355.411 375.085C355.827 375.373 356.286 375.517 356.787 375.517C357.214 375.517 357.561 375.421 357.827 375.229C358.094 375.037 358.227 374.776 358.227 374.445C358.227 374.232 358.169 374.061 358.051 373.933C357.934 373.794 357.785 373.682 357.603 373.597C357.433 373.512 357.257 373.448 357.075 373.405L355.715 373.021C354.969 372.808 354.409 372.488 354.035 372.061C353.673 371.624 353.491 371.117 353.491 370.541C353.491 370.018 353.625 369.565 353.891 369.181C354.158 368.786 354.526 368.482 354.995 368.269C355.465 368.056 355.993 367.949 356.579 367.949C357.369 367.949 358.073 368.146 358.691 368.541C359.31 368.925 359.747 369.464 360.003 370.157L358.611 370.813C358.441 370.397 358.169 370.066 357.795 369.821C357.433 369.576 357.022 369.453 356.563 369.453C356.169 369.453 355.854 369.549 355.619 369.741C355.385 369.922 355.267 370.162 355.267 370.461C355.267 370.664 355.321 370.834 355.427 370.973C355.534 371.101 355.673 371.208 355.843 371.293C356.014 371.368 356.19 371.432 356.371 371.485L357.779 371.901C358.494 372.104 359.043 372.424 359.427 372.861C359.811 373.288 360.003 373.8 360.003 374.397C360.003 374.909 359.865 375.362 359.587 375.757C359.321 376.141 358.947 376.445 358.467 376.669C357.987 376.882 357.427 376.989 356.787 376.989ZM365.519 376.893C364.612 376.893 363.908 376.637 363.407 376.125C362.905 375.613 362.655 374.893 362.655 373.965V369.773H361.135V368.141H361.375C361.78 368.141 362.095 368.024 362.319 367.789C362.543 367.554 362.655 367.234 362.655 366.829V366.157H364.463V368.141H366.431V369.773H364.463V373.885C364.463 374.184 364.511 374.44 364.607 374.653C364.703 374.856 364.857 375.016 365.071 375.133C365.284 375.24 365.561 375.293 365.903 375.293C365.988 375.293 366.084 375.288 366.191 375.277C366.297 375.266 366.399 375.256 366.495 375.245V376.797C366.345 376.818 366.18 376.84 365.999 376.861C365.817 376.882 365.657 376.893 365.519 376.893ZM370.773 376.989C370.186 376.989 369.669 376.888 369.221 376.685C368.784 376.472 368.442 376.184 368.197 375.821C367.952 375.448 367.829 375.01 367.829 374.509C367.829 374.04 367.93 373.618 368.133 373.245C368.346 372.872 368.672 372.557 369.109 372.301C369.546 372.045 370.096 371.864 370.757 371.757L373.765 371.261V372.685L371.109 373.149C370.629 373.234 370.277 373.389 370.053 373.613C369.829 373.826 369.717 374.104 369.717 374.445C369.717 374.776 369.84 375.048 370.085 375.261C370.341 375.464 370.666 375.565 371.061 375.565C371.552 375.565 371.978 375.458 372.341 375.245C372.714 375.032 373.002 374.749 373.205 374.397C373.408 374.034 373.509 373.634 373.509 373.197V370.973C373.509 370.546 373.349 370.2 373.029 369.933C372.72 369.656 372.304 369.517 371.781 369.517C371.301 369.517 370.88 369.645 370.517 369.901C370.165 370.146 369.904 370.466 369.733 370.861L368.229 370.109C368.389 369.682 368.65 369.309 369.013 368.989C369.376 368.658 369.797 368.402 370.277 368.221C370.768 368.04 371.285 367.949 371.829 367.949C372.512 367.949 373.114 368.077 373.637 368.333C374.17 368.589 374.581 368.946 374.869 369.405C375.168 369.853 375.317 370.376 375.317 370.973V376.797H373.589V375.229L373.957 375.277C373.754 375.629 373.493 375.933 373.173 376.189C372.864 376.445 372.506 376.642 372.101 376.781C371.706 376.92 371.264 376.989 370.773 376.989ZM381.019 376.893C380.112 376.893 379.408 376.637 378.907 376.125C378.405 375.613 378.155 374.893 378.155 373.965V369.773H376.635V368.141H376.875C377.28 368.141 377.595 368.024 377.819 367.789C378.043 367.554 378.155 367.234 378.155 366.829V366.157H379.963V368.141H381.931V369.773H379.963V373.885C379.963 374.184 380.011 374.44 380.107 374.653C380.203 374.856 380.357 375.016 380.571 375.133C380.784 375.24 381.061 375.293 381.403 375.293C381.488 375.293 381.584 375.288 381.691 375.277C381.797 375.266 381.899 375.256 381.995 375.245V376.797C381.845 376.818 381.68 376.84 381.499 376.861C381.317 376.882 381.157 376.893 381.019 376.893ZM387.667 376.989C386.803 376.989 386.035 376.792 385.363 376.397C384.702 375.992 384.184 375.448 383.811 374.765C383.438 374.072 383.251 373.298 383.251 372.445C383.251 371.57 383.438 370.797 383.811 370.125C384.195 369.453 384.707 368.925 385.347 368.541C385.987 368.146 386.712 367.949 387.523 367.949C388.174 367.949 388.755 368.061 389.267 368.285C389.779 368.509 390.211 368.818 390.563 369.213C390.915 369.597 391.182 370.04 391.363 370.541C391.555 371.042 391.651 371.576 391.651 372.141C391.651 372.28 391.646 372.424 391.635 372.573C391.624 372.722 391.603 372.861 391.571 372.989H384.675V371.549H390.547L389.683 372.205C389.79 371.682 389.752 371.218 389.571 370.813C389.4 370.397 389.134 370.072 388.771 369.837C388.419 369.592 388.003 369.469 387.523 369.469C387.043 369.469 386.616 369.592 386.243 369.837C385.87 370.072 385.582 370.413 385.379 370.861C385.176 371.298 385.096 371.832 385.139 372.461C385.086 373.048 385.166 373.56 385.379 373.997C385.603 374.434 385.912 374.776 386.307 375.021C386.712 375.266 387.171 375.389 387.683 375.389C388.206 375.389 388.648 375.272 389.011 375.037C389.384 374.802 389.678 374.498 389.891 374.125L391.363 374.845C391.192 375.25 390.926 375.618 390.563 375.949C390.211 376.269 389.784 376.525 389.283 376.717C388.792 376.898 388.254 376.989 387.667 376.989ZM396.615 376.989C395.73 376.989 394.951 376.77 394.279 376.333C393.618 375.896 393.154 375.309 392.887 374.573L394.279 373.917C394.514 374.408 394.834 374.797 395.239 375.085C395.655 375.373 396.114 375.517 396.615 375.517C397.042 375.517 397.389 375.421 397.655 375.229C397.922 375.037 398.055 374.776 398.055 374.445C398.055 374.232 397.997 374.061 397.879 373.933C397.762 373.794 397.613 373.682 397.431 373.597C397.261 373.512 397.085 373.448 396.903 373.405L395.543 373.021C394.797 372.808 394.237 372.488 393.863 372.061C393.501 371.624 393.319 371.117 393.319 370.541C393.319 370.018 393.453 369.565 393.719 369.181C393.986 368.786 394.354 368.482 394.823 368.269C395.293 368.056 395.821 367.949 396.407 367.949C397.197 367.949 397.901 368.146 398.519 368.541C399.138 368.925 399.575 369.464 399.831 370.157L398.439 370.813C398.269 370.397 397.997 370.066 397.623 369.821C397.261 369.576 396.85 369.453 396.391 369.453C395.997 369.453 395.682 369.549 395.447 369.741C395.213 369.922 395.095 370.162 395.095 370.461C395.095 370.664 395.149 370.834 395.255 370.973C395.362 371.101 395.501 371.208 395.671 371.293C395.842 371.368 396.018 371.432 396.199 371.485L397.607 371.901C398.322 372.104 398.871 372.424 399.255 372.861C399.639 373.288 399.831 373.8 399.831 374.397C399.831 374.909 399.693 375.362 399.415 375.757C399.149 376.141 398.775 376.445 398.295 376.669C397.815 376.882 397.255 376.989 396.615 376.989ZM402.067 379.149V378.269C402.419 378.184 402.691 378.018 402.883 377.773C403.075 377.538 403.192 377.213 403.235 376.797H402.387V374.717H404.227V376.077C404.227 376.93 404.046 377.618 403.683 378.141C403.32 378.664 402.782 379 402.067 379.149ZM409.826 376.797V364.877H417.682V366.557H411.714V369.981H417.362V371.661H411.714V375.117H417.682V376.797H409.826ZM423.899 376.989C423.014 376.989 422.224 376.802 421.531 376.429C420.848 376.056 420.31 375.544 419.915 374.893C419.531 374.242 419.339 373.501 419.339 372.669V364.877H421.227V372.589C421.227 373.112 421.339 373.576 421.563 373.981C421.798 374.386 422.112 374.701 422.507 374.925C422.912 375.149 423.376 375.261 423.899 375.261C424.432 375.261 424.896 375.149 425.291 374.925C425.696 374.701 426.011 374.386 426.235 373.981C426.47 373.576 426.587 373.112 426.587 372.589V364.877H428.459V372.669C428.459 373.501 428.267 374.242 427.883 374.893C427.499 375.544 426.96 376.056 426.267 376.429C425.584 376.802 424.795 376.989 423.899 376.989ZM437.079 376.989C436.375 376.989 435.756 376.861 435.223 376.605C434.689 376.338 434.268 375.97 433.959 375.501C433.66 375.021 433.511 374.466 433.511 373.837C433.511 373.304 433.607 372.84 433.799 372.445C433.991 372.04 434.231 371.698 434.519 371.421C434.807 371.133 435.095 370.893 435.383 370.701C435.671 370.509 435.911 370.36 436.103 370.253L437.079 369.709C437.399 369.528 437.703 369.336 437.991 369.133C438.279 368.93 438.513 368.701 438.695 368.445C438.876 368.189 438.967 367.901 438.967 367.581C438.967 367.197 438.839 366.877 438.583 366.621C438.327 366.354 438.007 366.221 437.623 366.221C437.239 366.221 436.919 366.349 436.663 366.605C436.407 366.861 436.279 367.192 436.279 367.597C436.279 367.874 436.343 368.146 436.471 368.413C436.609 368.68 436.769 368.93 436.951 369.165C437.143 369.389 437.329 369.602 437.511 369.805L443.911 376.797H441.655L436.167 370.893C435.911 370.616 435.655 370.322 435.399 370.013C435.153 369.693 434.945 369.341 434.775 368.957C434.615 368.573 434.535 368.146 434.535 367.677C434.535 367.069 434.673 366.541 434.951 366.093C435.239 365.645 435.612 365.298 436.071 365.053C436.54 364.808 437.052 364.685 437.607 364.685C438.172 364.685 438.684 364.813 439.143 365.069C439.601 365.314 439.964 365.656 440.231 366.093C440.508 366.53 440.647 367.026 440.647 367.581C440.647 368.157 440.513 368.653 440.247 369.069C439.98 369.485 439.655 369.837 439.271 370.125C438.897 370.413 438.545 370.658 438.215 370.861L437.239 371.437C436.983 371.586 436.711 371.773 436.423 371.997C436.145 372.21 435.911 372.466 435.719 372.765C435.527 373.053 435.431 373.4 435.431 373.805C435.431 374.306 435.585 374.696 435.895 374.973C436.215 375.25 436.631 375.389 437.143 375.389C437.473 375.389 437.767 375.336 438.023 375.229C438.279 375.122 438.503 374.984 438.695 374.813C438.897 374.642 439.073 374.456 439.223 374.253C439.383 374.04 439.527 373.842 439.655 373.661L441.511 370.941H443.447L441.303 374.269C441.132 374.525 440.929 374.813 440.695 375.133C440.46 375.442 440.177 375.741 439.847 376.029C439.516 376.306 439.121 376.536 438.663 376.717C438.215 376.898 437.687 376.989 437.079 376.989ZM453.274 376.989C452.389 376.989 451.599 376.802 450.906 376.429C450.223 376.056 449.685 375.544 449.29 374.893C448.906 374.242 448.714 373.501 448.714 372.669V364.877H450.602V372.589C450.602 373.112 450.714 373.576 450.938 373.981C451.173 374.386 451.487 374.701 451.882 374.925C452.287 375.149 452.751 375.261 453.274 375.261C453.807 375.261 454.271 375.149 454.666 374.925C455.071 374.701 455.386 374.386 455.61 373.981C455.845 373.576 455.962 373.112 455.962 372.589V364.877H457.834V372.669C457.834 373.501 457.642 374.242 457.258 374.893C456.874 375.544 456.335 376.056 455.642 376.429C454.959 376.802 454.17 376.989 453.274 376.989ZM460.201 376.797V364.877H461.721L468.409 374.109L467.689 374.221V364.877H469.561V376.797H468.041L461.401 367.501L462.089 367.373V376.797H460.201Z" fill="#797979"/>
</g>
<defs>
<linearGradient id="paint0_linear_2229_300" x1="322.092" y1="273.625" x2="483.377" y2="294.383" gradientUnits="userSpaceOnUse">
<stop stop-color="#FD6C55"/>
<stop offset="1" stop-color="#744DE4"/>
</linearGradient>
</defs>
</svg>
