<svg width="284" height="121" viewBox="0 0 284 121" fill="none" xmlns="http://www.w3.org/2000/svg">
<path d="M46.5634 31.2375V39.3975H16.9634V55.1575H41.9234L41.4434 63.2375H16.9634V86.4375H6.56344V31.2375H46.5634ZM69.6822 85.2375C69.0422 85.7975 67.8422 86.2775 66.0822 86.7575C64.3222 87.2375 62.4022 87.4775 60.4822 87.4775C57.0422 87.4775 54.4822 86.6775 52.8822 84.9975C51.2822 83.3975 50.4822 80.7575 50.4822 77.1575V30.0375H60.4022V75.4775C60.4022 78.1975 61.6022 79.5575 64.1622 79.5575C65.3622 79.5575 66.6422 79.2375 67.9222 78.4375L69.6822 85.2375ZM115.49 85.0775C114.77 85.7175 113.81 86.2775 112.53 86.7575C111.25 87.2375 109.97 87.4775 108.69 87.4775C106.13 87.4775 104.21 86.8375 102.85 85.4775C101.49 84.1975 100.85 82.1975 100.85 79.4775C100.85 78.3575 100.93 77.2375 101.17 76.1175H99.4897C98.5297 79.9575 96.8497 82.8375 94.5297 84.6775C92.1297 86.5975 89.0097 87.4775 85.0097 87.4775C80.6097 87.4775 77.1697 86.4375 74.6897 84.1975C72.2097 81.9575 71.0097 79.0775 71.0097 75.4775C71.0097 71.0775 72.7697 67.7175 76.3697 65.4775C79.9697 63.2375 84.7697 62.1175 90.8497 62.1175C93.7297 62.1175 96.4497 62.3575 99.0097 62.7575V59.7975C99.0097 54.8375 96.1297 52.2775 90.5297 52.2775C87.9697 52.2775 85.9697 52.9175 84.5297 54.1975C83.0897 55.4775 82.0497 57.2375 81.4897 59.6375L72.8497 57.6375C73.4097 53.7175 75.3297 50.5975 78.6897 48.3575C82.0497 46.1175 86.3697 44.9175 91.6497 44.9175C97.0897 44.9175 101.33 46.1975 104.37 48.6775C107.41 51.2375 108.93 54.7575 108.93 59.3175V75.1575C108.93 76.5975 109.09 77.7175 109.57 78.5175C109.97 79.3175 110.61 79.7175 111.49 79.7175C112.05 79.7175 112.77 79.4775 113.57 78.9975L115.49 85.0775ZM98.8497 68.1175C97.0897 67.9575 95.3297 67.7975 93.4097 67.7975C89.4897 67.7975 86.5297 68.4375 84.4497 69.5575C82.3697 70.7575 81.3297 72.5175 81.3297 74.8375C81.3297 76.5175 81.8097 77.7975 82.9297 78.7575C84.0497 79.7175 85.4897 80.1975 87.4097 80.1975C94.1297 80.1975 97.9697 76.1975 98.8497 68.1175ZM154.043 80.6775C157.003 82.5975 158.523 85.5575 158.523 89.7175C158.523 94.1175 156.603 97.4775 152.843 99.8775C149.083 102.278 143.323 103.478 135.563 103.478C128.843 103.478 123.883 102.598 120.523 100.758C117.163 98.9175 115.483 96.4375 115.483 93.2375C115.483 87.7975 120.523 84.7575 130.763 84.1175V82.5175C126.603 82.5175 123.483 82.2775 121.483 81.6375C119.403 81.0775 118.443 79.9575 118.443 78.2775C118.443 76.6775 119.403 75.4775 121.403 74.5175C123.323 73.5575 126.523 72.9975 130.843 72.7575V71.0775C126.843 71.0775 123.643 70.2775 121.163 68.5175C118.603 66.7575 117.403 63.7975 117.403 59.6375C117.403 54.9975 119.083 51.3975 122.443 48.8375C125.803 46.2775 130.523 44.9175 136.603 44.9175C140.443 44.9175 143.803 45.3975 146.523 46.3575C147.483 43.4775 148.923 40.8375 151.003 38.5975C153.003 36.3575 155.563 35.1575 158.603 35.1575L159.803 45.5575H156.363C152.843 45.5575 150.443 46.1975 149.003 47.4775C153.483 49.9575 155.803 54.1175 155.803 59.8775C155.803 64.9175 154.043 68.5975 150.683 70.8375C147.323 73.1575 142.603 74.2775 136.603 74.2775C134.683 74.2775 133.243 74.4375 132.283 74.6775C131.323 74.9975 130.923 75.3975 130.923 76.0375C130.923 76.7575 131.563 77.2375 133.003 77.4775C134.443 77.7975 137.003 77.8775 140.683 77.8775C146.603 77.8775 151.003 78.8375 154.043 80.6775ZM129.803 65.0775C131.403 66.5175 133.723 67.1575 136.603 67.1575C139.483 67.1575 141.723 66.5175 143.323 65.0775C144.923 63.7175 145.723 61.8775 145.723 59.5575C145.723 57.2375 144.843 55.3175 143.243 53.8775C141.643 52.4375 139.403 51.7175 136.603 51.7175C133.723 51.7175 131.403 52.4375 129.803 53.8775C128.203 55.3175 127.403 57.2375 127.403 59.5575C127.403 61.8775 128.203 63.7175 129.803 65.0775ZM145.323 94.7575C147.403 93.7975 148.443 92.3575 148.443 90.3575C148.443 88.5975 147.563 87.3175 145.963 86.5175C144.283 85.7175 141.643 85.3175 138.043 85.3175C133.723 85.3175 130.443 85.7975 128.203 86.7575C125.963 87.7175 124.843 89.1575 124.843 90.9175C124.843 92.6775 125.803 93.9575 127.803 94.8375C129.723 95.7175 132.443 96.1175 135.883 96.1175C140.123 96.1175 143.243 95.7175 145.323 94.7575ZM164.297 36.1175C163.657 35.3975 163.337 34.4375 163.337 33.1575C163.337 32.0375 163.657 31.0775 164.297 30.2775C164.937 29.5575 165.977 29.1575 167.417 29.1575C168.697 29.1575 169.657 29.5575 170.377 30.2775C171.017 31.0775 171.417 32.0375 171.417 33.1575C171.417 34.3575 171.017 35.3175 170.377 36.1175C169.657 36.9175 168.697 37.2375 167.417 37.2375C165.977 37.2375 164.937 36.9175 164.297 36.1175ZM170.297 86.4375H164.377V46.4375H170.297V86.4375ZM190.185 46.4375H205.305V51.0775H190.185V86.4375H184.265V51.0775H177.545V46.4375H184.265V42.5975C184.265 38.3575 185.385 35.0775 187.705 32.6775C189.945 30.3575 193.145 29.1575 197.305 29.1575C199.705 29.1575 201.625 29.4775 203.225 30.0375C204.825 30.5975 206.265 31.3175 207.545 32.2775L204.585 36.4375C202.505 34.7575 200.105 33.8775 197.465 33.8775C195.065 33.8775 193.225 34.5975 192.025 35.9575C190.745 37.3175 190.185 39.2375 190.185 41.6375V46.4375ZM235.056 46.4375H241.536L226.416 86.4375C224.416 91.6375 222.416 95.2375 220.336 97.3175C218.256 99.3975 215.936 100.438 213.216 100.438C211.536 100.438 209.936 100.118 208.496 99.4775C207.056 98.8375 205.936 98.0375 205.216 97.2375L208.176 92.6775C209.936 94.2775 211.696 95.0775 213.616 95.0775C215.536 95.0775 217.216 94.2775 218.816 92.6775C220.336 91.0775 221.456 88.9975 222.256 86.4375H219.216L204.176 46.4375H210.816L218.096 67.2375C219.296 70.9975 220.176 73.8775 220.816 75.8775C221.456 77.9575 221.936 79.9575 222.256 82.0375H223.776C223.936 80.3575 224.336 78.6775 224.816 76.9175C225.296 75.1575 226.016 72.8375 226.976 69.9575C227.456 68.5175 227.696 67.5575 227.856 67.2375L235.056 46.4375Z" fill="black"/>
</svg>
